<svg id="Layer_1" data-name="Layer 1" xmlns="http://www.w3.org/2000/svg" xmlns:xlink="http://www.w3.org/1999/xlink" viewBox="0 0 51.04 29.54"><defs><style>.cls-1{fill:#fff;}.cls-2{fill:none;}.cls-3{fill:#b7b7b7;}.cls-4{fill:#c3c4c4;}.cls-5{fill:#616261;}.cls-6{fill:#414042;}.cls-7{fill:url(#linear-gradient);}.cls-8{fill:#7d7d7d;}.cls-9{fill:#111;}.cls-10{fill:#2d2d2d;}.cls-11{fill:#898989;}.cls-12{fill:#afb0af;}.cls-13{fill:url(#linear-gradient-2);}.cls-14{fill:#1d1e21;}.cls-15{fill:#a29f9a;}.cls-16{fill:#161415;}.cls-17{fill:#161719;}.cls-18{fill:#151519;}.cls-19{fill:#0c0c0c;}.cls-20{fill:#7f7f80;}.cls-21{fill:#121111;}.cls-22{fill:#955556;}.cls-23{fill:#2c2b2e;}</style><linearGradient id="linear-gradient" x1="42.61" y1="13.02" x2="42.61" y2="31.58" gradientUnits="userSpaceOnUse"><stop offset="0" stop-color="#a4a3a4"/><stop offset="0.51" stop-color="#d7d8d8"/><stop offset="1" stop-color="#a4a3a4"/></linearGradient><linearGradient id="linear-gradient-2" x1="33.5" y1="8.43" x2="33.5" y2="9.21" gradientUnits="userSpaceOnUse"><stop offset="0.15"/><stop offset="0.17" stop-color="#0a0a0a"/><stop offset="0.2" stop-color="#242424"/><stop offset="0.24" stop-color="#505050"/><stop offset="0.29" stop-color="#8b8b8b"/><stop offset="0.29" stop-color="#8c8c8c"/><stop offset="0.32" stop-color="#6d6d6d"/><stop offset="0.36" stop-color="#3e3e3e"/><stop offset="0.4" stop-color="#1c1c1c"/><stop offset="0.43" stop-color="#080808"/><stop offset="0.45"/><stop offset="1"/></linearGradient></defs><path class="cls-1" d="M28.89,15.33H56V26.55H28.89Zm12.89,8.38H38.16c-.21,0-.29.07-.29.28s0,.67,0,1,0,.31.31.31h7.25c.26,0,.3,0,.3-.3v-.94c0-.33,0-.35-.35-.35Zm10.69-.21h1.44c.19,0,.28-.07.28-.27s0-.54,0-.82-.07-.27-.27-.27H51c-.2,0-.27.09-.27.28s0,.52,0,.77,0,.31.31.31C51.53,23.51,52,23.5,52.47,23.5ZM32.36,21.94h1c.19,0,.28-.07.28-.27v-.84c0-.17-.07-.25-.24-.25H31.3c-.17,0-.24.08-.24.25s0,.56,0,.84.09.28.28.27C31.68,21.93,32,21.94,32.36,21.94Zm21.82-1.46h0V19.27c0-.15,0-.26-.21-.26-.34,0-.67,0-1,0a.27.27,0,0,0-.18.19c0,.31,0,.62,0,.93,0,.14.07.23.21.22s.2.08.19.23v1.09a.23.23,0,0,0,.25.26c.17,0,.33,0,.5,0s.27-.08.27-.28C54.17,21.27,54.18,20.87,54.18,20.48ZM53.06,18.8c.28,0,.56,0,.84,0s.27-.07.27-.25,0-.58,0-.87-.07-.24-.23-.24H52.18a.21.21,0,0,0-.24.24v.87c0,.18.09.26.27.26S52.77,18.8,53.06,18.8ZM32.18,20.37H33c.17,0,.25-.07.25-.24s0-.58,0-.87-.07-.24-.23-.24H31.3c-.16,0-.23.07-.23.22,0,.3,0,.59,0,.89s.08.25.25.24ZM46.84,25.3h0c.22,0,.44,0,.66,0a.22.22,0,0,0,.25-.25c0-.37,0-.73,0-1.1,0-.17-.08-.24-.25-.24H46.18c-.18,0-.25.08-.25.25v1.09c0,.19.09.26.27.25ZM36.79,23.71h-.71a.19.19,0,0,0-.21.21v1.17a.19.19,0,0,0,.21.21c.46,0,.91,0,1.37,0,.15,0,.22-.08.22-.23V23.93a.19.19,0,0,0-.22-.22Zm-4.85-.21h.66a.22.22,0,0,0,.26-.26V22.4c0-.19-.08-.26-.26-.26H31.3a.22.22,0,0,0-.25.25v.87c0,.17.08.25.25.24Zm17.43,1h0v-.57a.2.2,0,0,0-.22-.23h-1c-.15,0-.22.08-.22.23,0,.37,0,.74,0,1.11,0,.18.09.25.26.25h.91c.18,0,.26-.09.26-.27S49.37,24.68,49.37,24.51Zm3.21,0h0c0-.19,0-.38,0-.57a.2.2,0,0,0-.23-.23h-1c-.17,0-.24.08-.24.24V25c0,.17.08.26.25.25h.91c.19,0,.27-.09.26-.27Zm-20.13,0c0-.19,0-.38,0-.57a.19.19,0,0,0-.21-.21h-1a.19.19,0,0,0-.21.21c0,.38,0,.76,0,1.14a.2.2,0,0,0,.23.23h.95c.17,0,.24-.09.23-.24Zm1.61,0h0c0-.18,0-.37,0-.55s-.07-.25-.24-.25h-.94c-.16,0-.23.08-.23.24,0,.37,0,.74,0,1.11,0,.15.07.23.22.23h1a.21.21,0,0,0,.24-.24C34.05,24.87,34.06,24.69,34.06,24.51Zm1.6,0h0V24c0-.16-.07-.24-.23-.24H34.5c-.16,0-.24.07-.24.23,0,.37,0,.75,0,1.12,0,.15.07.23.24.23h.93c.18,0,.25-.08.24-.25Zm3.72-2.58h.46c.17,0,.26-.07.26-.24v-.87c0-.18-.09-.26-.27-.26h-.91c-.17,0-.24.09-.24.25v.87a.22.22,0,0,0,.25.25Zm6.35.88h0v-.45c0-.15-.07-.23-.22-.23-.32,0-.65,0-1,0a.2.2,0,0,0-.23.23c0,.3,0,.6,0,.91,0,.14.07.23.22.23h1c.15,0,.22-.08.22-.23Zm-2.32.69c.15,0,.31,0,.46,0s.26-.09.26-.26v-.87a.22.22,0,0,0-.24-.24h-1a.19.19,0,0,0-.21.21v.94c0,.15.08.22.23.22Zm.8-2.94h-.48a.2.2,0,0,0-.23.22v.91a.21.21,0,0,0,.24.24h.95c.15,0,.23-.07.23-.22v-.94a.19.19,0,0,0-.21-.21Zm5.65,2.93h.48a.19.19,0,0,0,.22-.22v-.93a.19.19,0,0,0-.21-.21,8.34,8.34,0,0,0-1,0,.26.26,0,0,0-.19.19c0,.31,0,.63,0,.95a.2.2,0,0,0,.23.22Zm-7.28-1.56h.48c.17,0,.26-.07.26-.24s0-.59,0-.89a.21.21,0,0,0-.24-.24h-.95a.21.21,0,0,0-.24.24c0,.29,0,.58,0,.87s.09.27.27.26Zm2-3.14h.48c.16,0,.24-.07.24-.23v-.89c0-.16-.07-.25-.23-.25h-1a.21.21,0,0,0-.23.23c0,.3,0,.61,0,.91s.08.23.24.23ZM49,21.94h.48a.21.21,0,0,0,.23-.24v-.89c0-.16-.07-.24-.23-.24h-1a.21.21,0,0,0-.23.24c0,.15,0,.29,0,.44C48.34,22,48.24,21.94,49,21.94Zm-1.58-1.37h-.52a.19.19,0,0,0-.21.21v.94c0,.15.08.22.23.22h1c.15,0,.21-.08.21-.22q0-.46,0-.93a.2.2,0,0,0-.22-.22Zm3.59-3.14h-.5a.19.19,0,0,0-.21.21v.91c0,.16.07.24.24.24h1c.15,0,.22-.08.22-.23v-.91a.21.21,0,0,0-.23-.23ZM41,20.57h-.48c-.16,0-.23.08-.23.24v.87c0,.18.08.26.26.26h.91a.22.22,0,0,0,.25-.25v-.87a.22.22,0,0,0-.25-.25Zm4.83,1.37h.48a.21.21,0,0,0,.23-.23V20.8c0-.15-.07-.23-.23-.23h-1a.19.19,0,0,0-.21.21v.92c0,.17.09.24.26.24Zm-4,1.57h0c.16,0,.32,0,.48,0a.19.19,0,0,0,.21-.21c0-.32,0-.64,0-1,0-.07-.12-.19-.19-.19a8.51,8.51,0,0,0-1,0,.28.28,0,0,0-.2.18c0,.32,0,.64,0,1a.21.21,0,0,0,.24.22C41.49,23.5,41.65,23.51,41.81,23.51Zm-.91-.69c0-.14,0-.28,0-.43s-.09-.26-.26-.25h-.91a.22.22,0,0,0-.25.25v.89a.2.2,0,0,0,.22.23h1c.15,0,.22-.08.22-.23Zm-2.32.68h0c.15,0,.3,0,.45,0s.26-.09.26-.27v-.86a.21.21,0,0,0-.24-.24H38.1c-.15,0-.22.08-.22.23v.91c0,.15.07.23.22.23Zm-.4-4.7h.45c.17,0,.26-.06.26-.24v-.89c0-.16-.08-.23-.24-.23h-.93c-.16,0-.24.07-.24.23v.91a.19.19,0,0,0,.22.22Zm14.11,3.14c.14,0,.29,0,.43,0a.22.22,0,0,0,.25-.25v-.87c0-.16-.07-.25-.24-.25h-.94c-.16,0-.23.07-.23.23v.89a.22.22,0,0,0,.25.25ZM37,22.14H36.5c-.15,0-.23.07-.23.22,0,.31,0,.61,0,.91s.07.24.24.24.62,0,.93,0a.21.21,0,0,0,.24-.24v-.89c0-.17-.08-.24-.25-.24Zm.81-1.57H37.3c-.16,0-.23.08-.23.24v.86c0,.18.08.26.26.26h.89c.18,0,.27-.07.26-.26v-.86c0-.18-.08-.25-.25-.25Zm8.44-1.77h.46c.17,0,.25-.07.25-.25s0-.57,0-.86-.09-.26-.27-.26-.6,0-.91,0a.21.21,0,0,0-.24.24c0,.3,0,.6,0,.91,0,.14.07.22.23.22Zm-10,1.78h-.5a.19.19,0,0,0-.21.21v.93a.19.19,0,0,0,.21.22h1a.21.21,0,0,0,.23-.23V20.8a.19.19,0,0,0-.22-.22Zm-1.63,1.36H35a.21.21,0,0,0,.24-.24v-.91a.19.19,0,0,0-.21-.21h-1c-.14,0-.21.06-.21.21,0,.3,0,.6,0,.91s.09.24.26.24Zm13.69,1.57h0c.15,0,.3,0,.45,0s.27-.08.27-.26v-.86c0-.17-.08-.26-.25-.26h-.93c-.18,0-.25.08-.24.25v.82c0,.26,0,.29.31.3Zm1.2-4.71h.48c.15,0,.23-.07.23-.22,0-.31,0-.61,0-.91a.21.21,0,0,0-.24-.24H49c-.14,0-.22.06-.22.2,0,.31,0,.63,0,.94a.19.19,0,0,0,.22.22ZM43,18.8h.5a.22.22,0,0,0,.25-.23v-.89a.22.22,0,0,0-.24-.25h-1a.2.2,0,0,0-.22.22v.48C42.31,18.89,42.21,18.79,43,18.8Zm7.71,1.77h-.51a.2.2,0,0,0-.23.22c0,.31,0,.62,0,.93a.33.33,0,0,0,.22.21c.32,0,.65,0,1,0a.2.2,0,0,0,.22-.22v-.93c0-.15-.08-.22-.23-.22ZM33.75,23.5h.45c.19,0,.27-.07.27-.25s0-.58,0-.87-.08-.24-.24-.24h-.95a.2.2,0,0,0-.22.21c0,.31,0,.61,0,.92,0,.15.07.24.24.23Zm6-4.7h.46c.17,0,.25-.06.25-.24v-.89c0-.16-.07-.23-.23-.23h-.93a.22.22,0,0,0-.25.25v.89a.2.2,0,0,0,.23.22Zm6.85,4.71c.15,0,.29,0,.44,0s.28-.07.27-.27V22.4c0-.19-.07-.27-.26-.26h-.89c-.18,0-.26.07-.26.25v.87c0,.17.07.25.25.25S46.48,23.51,46.63,23.51Zm-10-6.07h-.48c-.16,0-.24.08-.24.24s0,.6,0,.89.08.24.24.24h.94c.16,0,.23-.08.23-.23s0-.46,0-.69c0-.43,0-.44-.45-.44Zm10.46,2.93h.45a.21.21,0,0,0,.24-.24v-.91c0-.16-.09-.22-.23-.22h-1a.2.2,0,0,0-.23.22v.91a.22.22,0,0,0,.25.24C46.73,20.36,46.89,20.37,47.05,20.37ZM35.37,22.14h-.45c-.18,0-.26.07-.26.24v.89a.21.21,0,0,0,.24.24q.45,0,.9,0c.18,0,.27-.07.27-.26s0-.57,0-.86-.08-.25-.25-.25ZM35,18.81h.45c.18,0,.27-.08.27-.26v-.86c0-.17-.08-.24-.23-.24h-1c-.14,0-.21.06-.21.2,0,.32,0,.63,0,.94a.2.2,0,0,0,.23.22Zm12.86-1.38h-.47a.2.2,0,0,0-.22.23v.91c0,.15.07.23.22.23h1a.19.19,0,0,0,.21-.22c0-.31,0-.62,0-.93,0-.15-.08-.22-.23-.22Zm.82,2.93h.48c.15,0,.23-.07.23-.22,0-.31,0-.62,0-.93a.31.31,0,0,0-.19-.2,8.68,8.68,0,0,0-1,0,.29.29,0,0,0-.19.2c0,.31,0,.62,0,.94a.19.19,0,0,0,.23.21Zm1.59,0h.5c.15,0,.23-.07.23-.22v-.91c0-.15-.08-.22-.23-.23h-1a.19.19,0,0,0-.22.21c0,.31,0,.62,0,.93,0,.15.08.22.23.22ZM41.4,18.8h.46c.16,0,.24-.06.24-.23v-.91c0-.16-.09-.22-.24-.22h-.94c-.14,0-.22.06-.22.21v.94c0,.15.08.21.23.21Zm2.42.2h0c-.16,0-.32,0-.48,0s-.24.08-.23.24v.91a.19.19,0,0,0,.21.21h1c.15,0,.22-.08.22-.23,0-.3,0-.61,0-.91S44.45,19,44.3,19Zm8,1.36h.48c.14,0,.23-.06.23-.21,0-.32,0-.63,0-.94a.19.19,0,0,0-.21-.21h-1a.2.2,0,0,0-.22.23v.91a.2.2,0,0,0,.23.22ZM45.42,19H45c-.17,0-.26.07-.26.25s0,.59,0,.89a.21.21,0,0,0,.22.23c.32,0,.65,0,1,0a.34.34,0,0,0,.21-.21c0-.31,0-.62,0-.93,0-.15-.08-.22-.23-.21Zm-4.83,1.36h.46c.18,0,.26-.08.26-.26s0-.56,0-.84-.07-.26-.24-.26h-1a.19.19,0,0,0-.22.22v.91c0,.15.07.23.22.23ZM33.37,18.8h.48c.15,0,.22-.07.22-.22s0-.59,0-.89-.09-.24-.26-.24h-.47c-.78,0-.67-.08-.67.67S32.57,18.8,33.37,18.8Zm8.83,1.57h.48c.16,0,.23-.08.23-.24v-.89c0-.16-.08-.23-.24-.23h-1a.19.19,0,0,0-.22.22c0,.31,0,.61,0,.91,0,.15.07.23.22.23Zm-3.21,0h.45c.17,0,.26-.08.26-.25v-.88a.2.2,0,0,0-.22-.23h-1c-.15,0-.22.08-.22.23v.91a.2.2,0,0,0,.23.22Zm-4.83,0h.46c.16,0,.25-.06.25-.24s0-.59,0-.89-.09-.23-.25-.22H33.7c-.16,0-.23.07-.23.23s0,.56,0,.84.09.29.29.28S34,20.37,34.16,20.37ZM35.79,19h-.5c-.14,0-.22.06-.22.2,0,.32,0,.64,0,1a.29.29,0,0,0,.2.19c.32,0,.65,0,1,0,.15,0,.22-.08.22-.23v-.91a.19.19,0,0,0-.21-.21Zm1.59,0H36.9a.19.19,0,0,0-.22.22v.92a.19.19,0,0,0,.22.22h1c.15,0,.22-.08.22-.23s0-.59,0-.89S38,19,37.84,19Zm-5.63-.2h.48c.15,0,.23-.06.23-.22s0-.62,0-.93a.25.25,0,0,0-.18-.19,8.68,8.68,0,0,0-1,0,.25.25,0,0,0-.17.19c0,.31,0,.62,0,.93,0,.15.08.22.23.22Zm13.38-2.38h-.25c-.53,0-.55,0-.52.57,0,.16.08.24.24.24h.69c.56,0,.55.07.55-.59,0-.15-.08-.22-.23-.22Zm6.63,0h-.21c-.56,0-.57,0-.53.57,0,.16.09.24.25.24H52c.56,0,.55,0,.54-.55,0-.2-.09-.27-.28-.26Zm-1.66.8h.22c.53,0,.54,0,.52-.56,0-.19-.1-.26-.27-.25h-.66c-.58,0-.59,0-.54.58,0,.15.08.22.22.22Zm-3.3-.8h-.23c-.57,0-.57,0-.54.57q0,.24.24.24H47c.56,0,.59,0,.55-.59,0-.15-.09-.22-.23-.22Zm-3.36.81h.21c.54,0,.55,0,.53-.56,0-.17-.08-.25-.25-.25H43c-.08,0-.21.06-.21.1a3,3,0,0,0,0,.6c0,.05.13.1.2.11S43.27,17.24,43.44,17.24Zm-6.63-.8h-.23c-.56,0-.55,0-.53.57,0,.16.08.24.24.23H37c.54,0,.54,0,.53-.54v0a.2.2,0,0,0-.23-.22Zm11.61.8h.21c.57,0,.56,0,.54-.57,0-.17-.08-.24-.24-.24-.34,0-.68,0-1,0-.08,0-.18.11-.2.18a.72.72,0,0,0,0,.41.35.35,0,0,0,.21.2A2.79,2.79,0,0,0,48.42,17.24Zm5-.81h-.21c-.56,0-.57,0-.53.57,0,.16.09.24.24.24.33,0,.66,0,1,0,.09,0,.24-.11.24-.17s.12-.45-.11-.61a.41.41,0,0,0-.16,0Zm-13.33.81h.22c.54,0,.54,0,.53-.55,0-.18-.08-.26-.26-.26h-.66c-.58,0-.59,0-.55.58,0,.17.08.23.24.23Zm-1.65,0h.2c.55,0,.55,0,.53-.56,0-.18-.09-.25-.25-.25H38c-.13,0-.25.05-.23.19s-.12.45.12.61a.37.37,0,0,0,.15,0Zm3.35-.81h-.5c-.14,0-.27,0-.26.19s-.11.44.12.6a.22.22,0,0,0,.11,0h1c.13,0,.23-.06.22-.2s.12-.45-.13-.6a.32.32,0,0,0-.14,0Zm-6.69.82a1.62,1.62,0,0,1,.22,0c.54,0,.53,0,.53-.57v0a.2.2,0,0,0-.22-.21h-1c-.06,0-.17.08-.18.13a2,2,0,0,0,0,.54c0,.05.12.11.19.12A4.13,4.13,0,0,0,35.11,17.25Zm-1.65,0h.2c.55,0,.54,0,.53-.54,0-.2-.09-.27-.27-.27h-.68c-.54,0-.54,0-.51.55v0a.21.21,0,0,0,.23.22Zm20,8h.18c.56,0,.57,0,.53-.58,0-.16-.08-.23-.24-.23h-.66c-.54,0-.53-.07-.52.59a.2.2,0,0,0,.23.22Zm-21.67-8h.5c.16,0,.24-.09.22-.23s.12-.42-.13-.55h-.07c-.35,0-.71,0-1.06,0a.23.23,0,0,0-.18.13,1.67,1.67,0,0,0,0,.5c0,.06.12.13.19.14A4.51,4.51,0,0,0,31.81,17.25Zm18.46,7.23h-.18c-.57,0-.57,0-.54.56,0,.18.09.25.26.25h.63c.56,0,.57,0,.53-.59,0-.15-.07-.22-.22-.23Z" transform="translate(-9.09 -5.26)"/><path d="M41.78,23.71h3.6c.33,0,.35,0,.35.35V25c0,.26,0,.3-.3.3H38.18c-.27,0-.3,0-.31-.31s0-.66,0-1,.08-.28.29-.28Z" transform="translate(-9.09 -5.26)"/><path d="M52.47,23.5c-.47,0-.94,0-1.41,0-.26,0-.3-.05-.31-.31s0-.51,0-.77.07-.29.27-.28h2.89c.2,0,.28.08.27.27s0,.55,0,.82-.09.28-.28.27Z" transform="translate(-9.09 -5.26)"/><path d="M32.36,21.94c-.34,0-.68,0-1,0-.19,0-.28-.07-.28-.27s0-.56,0-.84.07-.25.24-.25h2.13c.17,0,.25.08.24.25v.84c0,.2-.09.27-.28.27Z" transform="translate(-9.09 -5.26)"/><path d="M54.18,20.48c0,.39,0,.79,0,1.18,0,.2-.07.28-.27.28s-.33,0-.5,0a.23.23,0,0,1-.25-.26V20.59c0-.15,0-.24-.19-.23s-.21-.08-.21-.22c0-.31,0-.62,0-.93A.27.27,0,0,1,53,19c.34,0,.67,0,1,0,.17,0,.21.11.21.26v1.21Z" transform="translate(-9.09 -5.26)"/><path d="M53.06,18.8c-.29,0-.57,0-.85,0s-.26-.08-.27-.26v-.87a.21.21,0,0,1,.24-.24h1.75c.16,0,.23.08.23.24s0,.58,0,.87-.09.25-.27.25S53.34,18.8,53.06,18.8Z" transform="translate(-9.09 -5.26)"/><path d="M32.18,20.37h-.87c-.17,0-.25-.07-.25-.24s0-.59,0-.89c0-.15.07-.22.23-.22h1.75c.16,0,.23.08.23.24s0,.58,0,.87-.08.24-.25.24Z" transform="translate(-9.09 -5.26)"/><path d="M46.84,25.3H46.2c-.18,0-.27-.06-.27-.25V24c0-.17.07-.25.25-.25H47.5c.17,0,.25.07.25.24,0,.37,0,.73,0,1.1a.22.22,0,0,1-.25.25c-.22,0-.44,0-.66,0Z" transform="translate(-9.09 -5.26)"/><path d="M36.79,23.71h.66a.19.19,0,0,1,.22.22v1.14c0,.15-.07.23-.22.23-.46,0-.91,0-1.37,0a.19.19,0,0,1-.21-.21V23.92a.19.19,0,0,1,.21-.21Z" transform="translate(-9.09 -5.26)"/><path d="M31.94,23.5H31.3c-.17,0-.25-.07-.25-.24v-.87a.22.22,0,0,1,.25-.25h1.3c.18,0,.27.07.26.26v.84a.22.22,0,0,1-.26.26Z" transform="translate(-9.09 -5.26)"/><path d="M49.37,24.51c0,.17,0,.35,0,.52s-.08.27-.26.27H48.2c-.17,0-.26-.07-.26-.25,0-.37,0-.74,0-1.11,0-.15.07-.23.22-.23h1a.2.2,0,0,1,.22.23v.57Z" transform="translate(-9.09 -5.26)"/><path d="M52.58,24.51V25c0,.18-.07.27-.26.27h-.91c-.17,0-.25-.08-.25-.25V24c0-.16.07-.24.24-.24h1a.2.2,0,0,1,.23.23c0,.19,0,.38,0,.57Z" transform="translate(-9.09 -5.26)"/><path d="M32.45,24.5v.55c0,.15-.06.24-.23.24h-.95a.2.2,0,0,1-.23-.23c0-.38,0-.76,0-1.14a.19.19,0,0,1,.21-.21h1a.19.19,0,0,1,.21.21C32.46,24.12,32.45,24.31,32.45,24.5Z" transform="translate(-9.09 -5.26)"/><path d="M34.06,24.51c0,.18,0,.36,0,.54a.21.21,0,0,1-.24.24h-1c-.15,0-.22-.08-.22-.23,0-.37,0-.74,0-1.11,0-.16.07-.24.23-.24h.94c.17,0,.25.08.24.25s0,.37,0,.55Z" transform="translate(-9.09 -5.26)"/><path d="M35.66,24.52V25c0,.17-.06.26-.24.25h-.93c-.17,0-.24-.08-.24-.23,0-.37,0-.75,0-1.12,0-.16.08-.23.24-.23h.93c.16,0,.24.08.23.24v.57Z" transform="translate(-9.09 -5.26)"/><path d="M39.38,21.94h-.45a.22.22,0,0,1-.25-.25v-.87c0-.16.07-.25.24-.25h.91c.18,0,.27.08.27.26v.87c0,.17-.09.24-.26.24Z" transform="translate(-9.09 -5.26)"/><path d="M45.73,22.82v.46c0,.15-.07.23-.22.23h-1c-.15,0-.21-.09-.22-.23,0-.31,0-.61,0-.91a.2.2,0,0,1,.23-.23c.32,0,.65,0,1,0,.15,0,.22.08.22.23v.45Z" transform="translate(-9.09 -5.26)"/><path d="M43.41,23.51h-.47c-.15,0-.23-.07-.23-.22v-.94a.19.19,0,0,1,.21-.21h1a.22.22,0,0,1,.24.24v.87c0,.17-.08.27-.26.26S43.56,23.51,43.41,23.51Z" transform="translate(-9.09 -5.26)"/><path d="M44.21,20.57h.5a.19.19,0,0,1,.21.21v.94c0,.15-.08.22-.23.22h-.95a.21.21,0,0,1-.24-.24v-.91a.2.2,0,0,1,.23-.22Z" transform="translate(-9.09 -5.26)"/><path d="M49.86,23.5h-.48a.2.2,0,0,1-.23-.22c0-.32,0-.64,0-.95a.26.26,0,0,1,.19-.19,8.34,8.34,0,0,1,1,0,.19.19,0,0,1,.21.21v.93a.19.19,0,0,1-.22.22Z" transform="translate(-9.09 -5.26)"/><path d="M42.58,21.94h-.41c-.18,0-.28-.07-.27-.26s0-.58,0-.87a.21.21,0,0,1,.24-.24h.95a.21.21,0,0,1,.24.24c0,.3,0,.59,0,.89s-.09.24-.26.24Z" transform="translate(-9.09 -5.26)"/><path d="M44.6,18.8h-.45c-.16,0-.24-.07-.24-.23s0-.61,0-.91a.21.21,0,0,1,.23-.23h1c.16,0,.23.09.23.25v.89c0,.16-.08.23-.24.23Z" transform="translate(-9.09 -5.26)"/><path d="M49,21.94c-.8,0-.7.06-.71-.69,0-.15,0-.29,0-.44a.21.21,0,0,1,.23-.24h1c.16,0,.23.08.23.24v.89a.21.21,0,0,1-.23.24Z" transform="translate(-9.09 -5.26)"/><path d="M47.46,20.57h.46a.2.2,0,0,1,.22.22q0,.47,0,.93c0,.14-.06.22-.21.22H47c-.15,0-.23-.07-.23-.22v-.94a.19.19,0,0,1,.21-.21Z" transform="translate(-9.09 -5.26)"/><path d="M51.05,17.43h.47a.21.21,0,0,1,.23.23v.91c0,.15-.07.23-.22.23h-1c-.17,0-.24-.08-.24-.24v-.91a.19.19,0,0,1,.21-.21Z" transform="translate(-9.09 -5.26)"/><path d="M41,20.57h.46a.22.22,0,0,1,.25.25v.87a.22.22,0,0,1-.25.25h-.91c-.18,0-.26-.08-.26-.26v-.87c0-.16.07-.24.23-.24Z" transform="translate(-9.09 -5.26)"/><path d="M45.83,21.94h-.45c-.17,0-.26-.07-.26-.24v-.92a.19.19,0,0,1,.21-.21h1c.16,0,.22.08.23.23v.91a.21.21,0,0,1-.23.23Z" transform="translate(-9.09 -5.26)"/><path d="M41.81,23.51c-.16,0-.32,0-.48,0a.21.21,0,0,1-.24-.22c0-.32,0-.64,0-1a.28.28,0,0,1,.2-.18,8.51,8.51,0,0,1,1,0c.07,0,.18.12.19.19,0,.32,0,.64,0,1a.19.19,0,0,1-.21.21c-.16,0-.32,0-.48,0Z" transform="translate(-9.09 -5.26)"/><path d="M40.9,22.82v.46c0,.15-.07.23-.22.23h-1a.2.2,0,0,1-.22-.23v-.89a.22.22,0,0,1,.25-.25h.91c.17,0,.27.06.26.25S40.9,22.68,40.9,22.82Z" transform="translate(-9.09 -5.26)"/><path d="M38.58,23.5H38.1c-.15,0-.22-.08-.22-.23v-.91c0-.15.07-.23.22-.23h.95a.21.21,0,0,1,.24.24v.86c0,.18-.07.27-.26.27s-.3,0-.45,0Z" transform="translate(-9.09 -5.26)"/><path d="M38.18,18.8H37.7a.19.19,0,0,1-.22-.22v-.91c0-.16.08-.23.24-.23h.93c.16,0,.24.07.24.23v.89c0,.18-.09.25-.26.24Z" transform="translate(-9.09 -5.26)"/><path d="M52.29,21.94h-.48a.22.22,0,0,1-.25-.25V20.8c0-.16.07-.23.23-.23h.94c.17,0,.24.09.24.25v.87a.22.22,0,0,1-.25.25C52.58,21.93,52.43,21.94,52.29,21.94Z" transform="translate(-9.09 -5.26)"/><path d="M37,22.14h.46c.17,0,.25.07.25.24v.89a.21.21,0,0,1-.24.24q-.46,0-.93,0c-.17,0-.24-.08-.24-.24s0-.6,0-.91c0-.15.08-.22.23-.22Z" transform="translate(-9.09 -5.26)"/><path d="M37.78,20.57h.45c.17,0,.26.07.25.25v.86c0,.19-.08.26-.26.26h-.89c-.18,0-.27-.08-.26-.26v-.86c0-.16.07-.25.23-.24h.48Z" transform="translate(-9.09 -5.26)"/><path d="M46.22,18.8h-.47c-.16,0-.23-.08-.23-.22,0-.31,0-.61,0-.91a.21.21,0,0,1,.24-.24c.31,0,.61,0,.91,0s.27.07.27.26,0,.58,0,.86-.08.26-.25.25Z" transform="translate(-9.09 -5.26)"/><path d="M36.18,20.58h.48a.19.19,0,0,1,.22.22v.91a.21.21,0,0,1-.23.23h-1a.19.19,0,0,1-.21-.22v-.93a.19.19,0,0,1,.21-.21Z" transform="translate(-9.09 -5.26)"/><path d="M34.55,21.94h-.43c-.17,0-.26-.07-.26-.24s0-.61,0-.91c0-.15.07-.21.21-.21h1a.19.19,0,0,1,.21.21v.91a.21.21,0,0,1-.24.24Z" transform="translate(-9.09 -5.26)"/><path d="M48.24,23.51h-.39c-.27,0-.31,0-.31-.3v-.82c0-.17.06-.26.24-.25h.93c.17,0,.25.09.25.26v.86c0,.18-.09.26-.27.26s-.3,0-.45,0Z" transform="translate(-9.09 -5.26)"/><path d="M49.44,18.8H49a.19.19,0,0,1-.22-.22c0-.31,0-.63,0-.94,0-.14.08-.2.22-.2h.95a.21.21,0,0,1,.24.24c0,.3,0,.6,0,.91,0,.15-.08.22-.23.22Z" transform="translate(-9.09 -5.26)"/><path d="M43,18.8c-.76,0-.66.09-.67-.66v-.48a.2.2,0,0,1,.22-.22h1a.22.22,0,0,1,.24.25v.89a.22.22,0,0,1-.25.23Z" transform="translate(-9.09 -5.26)"/><path d="M50.68,20.57h.45c.15,0,.23.07.23.22v.93a.2.2,0,0,1-.22.22c-.32,0-.65,0-1,0a.33.33,0,0,1-.22-.21c0-.31,0-.62,0-.93a.2.2,0,0,1,.23-.22Z" transform="translate(-9.09 -5.26)"/><path d="M33.75,23.5h-.46c-.17,0-.24-.08-.24-.23,0-.31,0-.61,0-.92a.2.2,0,0,1,.22-.21h.95c.16,0,.24.07.24.24s0,.58,0,.87-.08.26-.27.25Z" transform="translate(-9.09 -5.26)"/><path d="M39.78,18.8h-.47a.2.2,0,0,1-.23-.22v-.89a.22.22,0,0,1,.25-.25h.93c.16,0,.24.07.23.23v.89c0,.18-.08.25-.25.24Z" transform="translate(-9.09 -5.26)"/><path d="M46.63,23.51c-.15,0-.3,0-.45,0s-.25-.08-.25-.25v-.87c0-.18.08-.26.26-.25h.89c.19,0,.26.07.26.26v.84c0,.2-.08.28-.27.27S46.78,23.51,46.63,23.51Z" transform="translate(-9.09 -5.26)"/><path d="M36.59,17.44h.25c.45,0,.45,0,.45.44,0,.23,0,.46,0,.69s-.07.24-.23.23h-.94c-.16,0-.24-.07-.24-.24s0-.59,0-.89.08-.23.24-.24Z" transform="translate(-9.09 -5.26)"/><path d="M47.05,20.37c-.16,0-.32,0-.48,0a.22.22,0,0,1-.25-.24v-.91a.2.2,0,0,1,.23-.22h1c.14,0,.23.06.23.22v.91a.21.21,0,0,1-.24.24Z" transform="translate(-9.09 -5.26)"/><path d="M35.37,22.14h.45c.17,0,.25.07.25.25s0,.57,0,.86-.09.26-.27.26-.6,0-.9,0a.21.21,0,0,1-.24-.24v-.89c0-.17.08-.25.26-.24Z" transform="translate(-9.09 -5.26)"/><path d="M35,18.81H34.5a.2.2,0,0,1-.23-.22c0-.31,0-.62,0-.94,0-.14.07-.2.21-.2h1c.15,0,.23.07.23.24v.86c0,.18-.09.26-.27.26Z" transform="translate(-9.09 -5.26)"/><path d="M47.82,17.43h.48c.15,0,.23.07.23.22,0,.31,0,.62,0,.93a.19.19,0,0,1-.21.22h-1c-.15,0-.22-.08-.22-.23v-.91a.2.2,0,0,1,.22-.23Z" transform="translate(-9.09 -5.26)"/><path d="M48.64,20.36h-.47a.19.19,0,0,1-.23-.21c0-.32,0-.63,0-.94a.29.29,0,0,1,.19-.2,8.68,8.68,0,0,1,1,0,.31.31,0,0,1,.19.2c0,.31,0,.62,0,.93,0,.15-.08.22-.23.22Z" transform="translate(-9.09 -5.26)"/><path d="M50.23,20.36h-.45c-.15,0-.23-.07-.23-.22,0-.31,0-.62,0-.93a.19.19,0,0,1,.22-.21h1c.15,0,.23.08.23.23v.91c0,.15-.08.22-.23.22Z" transform="translate(-9.09 -5.26)"/><path d="M41.4,18.8h-.47c-.15,0-.23-.06-.23-.21v-.94c0-.15.08-.21.22-.21h.94c.15,0,.24.06.24.22v.91c0,.17-.08.24-.24.23Z" transform="translate(-9.09 -5.26)"/><path d="M43.82,19h.48c.15,0,.22.08.22.23s0,.61,0,.91c0,.15-.07.23-.22.23h-1a.19.19,0,0,1-.21-.21v-.91c0-.16.07-.24.23-.24s.32,0,.48,0Z" transform="translate(-9.09 -5.26)"/><path d="M51.86,20.36h-.48a.2.2,0,0,1-.23-.22v-.91a.2.2,0,0,1,.22-.23h1a.19.19,0,0,1,.21.21c0,.31,0,.62,0,.94,0,.15-.09.21-.23.21Z" transform="translate(-9.09 -5.26)"/><path d="M45.42,19h.48c.15,0,.23.06.23.21,0,.31,0,.62,0,.93a.34.34,0,0,1-.21.21c-.33,0-.66,0-1,0a.21.21,0,0,1-.22-.23c0-.3,0-.6,0-.89S44.8,19,45,19Z" transform="translate(-9.09 -5.26)"/><path d="M40.59,20.37h-.48c-.15,0-.22-.08-.22-.23v-.91a.19.19,0,0,1,.22-.22h1c.17,0,.24.09.24.26s0,.56,0,.84-.08.26-.26.26Z" transform="translate(-9.09 -5.26)"/><path d="M33.37,18.8c-.8,0-.7.11-.69-.68s-.11-.66.67-.67h.47c.17,0,.26.07.26.24s0,.6,0,.89-.07.23-.22.22Z" transform="translate(-9.09 -5.26)"/><path d="M42.2,20.37h-.48c-.15,0-.22-.08-.22-.23,0-.3,0-.6,0-.91a.19.19,0,0,1,.22-.22h1c.16,0,.24.07.24.23v.89c0,.16-.07.24-.23.24Z" transform="translate(-9.09 -5.26)"/><path d="M39,20.37h-.48a.2.2,0,0,1-.23-.22v-.91c0-.15.07-.23.22-.23h1a.2.2,0,0,1,.22.23v.88c0,.17-.09.25-.26.25Z" transform="translate(-9.09 -5.26)"/><path d="M34.16,20.37c-.14,0-.27,0-.41,0s-.29-.07-.29-.28,0-.56,0-.84.07-.23.23-.23h.93c.16,0,.25.05.25.22s0,.59,0,.89-.09.24-.25.24Z" transform="translate(-9.09 -5.26)"/><path d="M35.79,19h.48a.19.19,0,0,1,.21.21v.91c0,.15-.07.23-.22.23-.33,0-.66,0-1,0a.29.29,0,0,1-.2-.19c0-.31,0-.63,0-1,0-.14.08-.2.22-.2Z" transform="translate(-9.09 -5.26)"/><path d="M37.38,19h.46c.17,0,.25.07.25.24s0,.6,0,.89-.07.23-.22.23h-1a.19.19,0,0,1-.22-.22v-.92A.19.19,0,0,1,36.9,19Z" transform="translate(-9.09 -5.26)"/><path d="M31.75,18.81H31.3c-.15,0-.23-.07-.23-.22,0-.31,0-.62,0-.93a.25.25,0,0,1,.17-.19,8.68,8.68,0,0,1,1,0,.25.25,0,0,1,.18.19c0,.31,0,.62,0,.93s-.08.22-.23.22Z" transform="translate(-9.09 -5.26)"/><path d="M45.13,16.43h.48c.15,0,.23.07.23.22,0,.66,0,.59-.55.59H44.6c-.16,0-.23-.08-.24-.24,0-.55,0-.57.52-.57Z" transform="translate(-9.09 -5.26)"/><path d="M51.76,16.43h.45c.19,0,.28.06.28.26,0,.55,0,.55-.54.55h-.68c-.16,0-.23-.08-.25-.24,0-.55,0-.57.53-.57Z" transform="translate(-9.09 -5.26)"/><path d="M50.1,17.23h-.51c-.14,0-.21-.07-.22-.22,0-.57,0-.59.54-.58h.66c.17,0,.26.06.27.25,0,.54,0,.55-.52.56H50.1Z" transform="translate(-9.09 -5.26)"/><path d="M46.8,16.43h.48c.14,0,.21.07.23.22,0,.56,0,.59-.55.59h-.69Q46,17.24,46,17c0-.57,0-.57.54-.57Z" transform="translate(-9.09 -5.26)"/><path d="M43.44,17.24c-.17,0-.33,0-.5,0s-.2-.06-.2-.11a3,3,0,0,1,0-.6s.13-.1.21-.1h1c.17,0,.24.08.25.25,0,.55,0,.56-.53.56Z" transform="translate(-9.09 -5.26)"/><path d="M36.81,16.44h.48a.2.2,0,0,1,.23.22v0c0,.54,0,.55-.53.54h-.7c-.16,0-.23-.07-.24-.23,0-.57,0-.57.53-.57Z" transform="translate(-9.09 -5.26)"/><path d="M48.42,17.24a2.79,2.79,0,0,1-.5,0,.35.35,0,0,1-.21-.2.72.72,0,0,1,0-.41c0-.07.12-.18.2-.18.34,0,.68,0,1,0,.16,0,.23.07.24.24,0,.56,0,.56-.54.57Z" transform="translate(-9.09 -5.26)"/><path d="M53.43,16.43h.45a.41.41,0,0,1,.16,0c.23.16.1.4.11.61s-.15.17-.24.17c-.32,0-.65,0-1,0-.15,0-.22-.08-.24-.24,0-.55,0-.57.53-.57Z" transform="translate(-9.09 -5.26)"/><path d="M40.1,17.24h-.48c-.16,0-.23-.06-.24-.23,0-.57,0-.58.55-.58h.66c.18,0,.25.08.26.26,0,.54,0,.55-.53.55Z" transform="translate(-9.09 -5.26)"/><path d="M38.45,17.24H38a.37.37,0,0,1-.15,0c-.24-.16-.11-.4-.12-.61s.1-.19.23-.19h1c.16,0,.24.07.25.25,0,.56,0,.56-.53.56Z" transform="translate(-9.09 -5.26)"/><path d="M41.8,16.43h.43a.32.32,0,0,1,.14,0c.25.15.1.4.13.6s-.09.2-.22.2h-1a.22.22,0,0,1-.11,0c-.23-.16-.1-.4-.12-.6s.12-.19.26-.19Z" transform="translate(-9.09 -5.26)"/><path d="M35.11,17.25a4.13,4.13,0,0,1-.5,0c-.07,0-.18-.07-.19-.12a2,2,0,0,1,0-.54s.12-.12.18-.13h1a.2.2,0,0,1,.22.21v0c0,.6,0,.57-.53.57A1.62,1.62,0,0,0,35.11,17.25Z" transform="translate(-9.09 -5.26)"/><path d="M33.46,17.25H33a.21.21,0,0,1-.23-.22v0c0-.53,0-.54.51-.55h.68c.18,0,.27.07.27.27,0,.54,0,.54-.53.54Z" transform="translate(-9.09 -5.26)"/><path d="M53.48,25.29H53a.2.2,0,0,1-.23-.22c0-.66,0-.58.52-.59H54c.16,0,.23.07.24.23,0,.56,0,.58-.53.58Z" transform="translate(-9.09 -5.26)"/><path d="M31.81,17.25a4.51,4.51,0,0,1-.52,0c-.07,0-.18-.08-.19-.14a1.67,1.67,0,0,1,0-.5.23.23,0,0,1,.18-.13c.35,0,.71,0,1.06,0h.07c.25.13.11.36.13.55s-.06.23-.22.23Z" transform="translate(-9.09 -5.26)"/><path d="M50.27,24.48h.48c.15,0,.21.08.22.23,0,.57,0,.59-.53.59h-.63c-.17,0-.25-.07-.26-.25,0-.56,0-.56.54-.56h.18Z" transform="translate(-9.09 -5.26)"/><polygon class="cls-2" points="22.57 9.64 22.57 9.66 21.98 9.66 21.98 9.64 22.01 9.61 22.55 9.61 22.57 9.64"/><rect class="cls-2" x="22.71" y="9.57" width="0.59" height="0.09"/><path class="cls-2" d="M30.7,14.78" transform="translate(-9.09 -5.26)"/><polygon class="cls-3" points="22.57 9.64 22.57 9.66 21.98 9.66 21.98 9.64 22.01 9.61 22.55 9.61 22.57 9.64"/><rect class="cls-3" x="22.71" y="9.57" width="0.59" height="0.09"/><rect class="cls-4" x="18.95" y="11.24" width="2.3" height="8.77"/><rect class="cls-2" x="23.44" y="9.57" width="0.59" height="0.09"/><rect class="cls-2" x="24.17" y="9.57" width="0.59" height="0.09"/><rect class="cls-2" x="24.9" y="9.57" width="0.59" height="0.09"/><rect class="cls-2" x="25.63" y="9.57" width="0.59" height="0.09"/><rect class="cls-2" x="26.36" y="9.57" width="0.59" height="0.09"/><rect class="cls-2" x="27.09" y="9.57" width="0.59" height="0.09"/><rect class="cls-2" x="27.83" y="9.57" width="0.59" height="0.09"/><rect class="cls-2" x="28.56" y="9.57" width="0.59" height="0.09"/><rect class="cls-2" x="29.29" y="9.57" width="0.59" height="0.09"/><rect class="cls-2" x="30.02" y="9.57" width="0.59" height="0.09"/><rect class="cls-2" x="30.75" y="9.57" width="0.59" height="0.09"/><rect class="cls-2" x="31.48" y="9.57" width="0.59" height="0.09"/><rect class="cls-2" x="32.21" y="9.57" width="0.59" height="0.09"/><rect class="cls-2" x="32.94" y="9.57" width="0.59" height="0.09"/><rect class="cls-2" x="33.67" y="9.57" width="0.59" height="0.09"/><rect class="cls-2" x="34.4" y="9.57" width="0.59" height="0.09"/><rect class="cls-2" x="35.13" y="9.57" width="0.59" height="0.09"/><rect class="cls-2" x="35.86" y="9.57" width="0.59" height="0.09"/><rect class="cls-2" x="36.59" y="9.57" width="0.59" height="0.09"/><rect class="cls-2" x="37.32" y="9.57" width="0.59" height="0.09"/><rect class="cls-2" x="38.05" y="9.57" width="0.59" height="0.09"/><rect class="cls-2" x="38.78" y="9.57" width="0.59" height="0.09"/><rect class="cls-2" x="39.52" y="9.57" width="0.59" height="0.09"/><rect class="cls-2" x="40.25" y="9.57" width="0.59" height="0.09"/><rect class="cls-2" x="40.98" y="9.57" width="0.59" height="0.09"/><rect class="cls-2" x="41.71" y="9.57" width="0.59" height="0.09"/><rect class="cls-2" x="42.44" y="9.57" width="0.59" height="0.09"/><rect class="cls-2" x="43.17" y="9.57" width="0.59" height="0.09"/><rect class="cls-2" x="43.9" y="9.57" width="0.59" height="0.09"/><rect class="cls-2" x="44.63" y="9.57" width="0.59" height="0.09"/><rect class="cls-3" x="21.61" y="9.3" width="23.77" height="0.23"/><path class="cls-5" d="M30.7,14.78V15H54.47v-.23Zm1,.14h-.59v-.1h.59Zm.73,0H31.8v-.1h.59Zm.73,0h-.59v-.1h.59Zm.73,0h-.59v-.1h.59Zm.73,0H34v-.1h.59Zm.73,0h-.59v-.1h.59Zm.73,0h-.59v-.1H36Zm.73,0h-.59v-.1h.59Zm.73,0h-.59v-.1h.59Zm.73,0h-.59v-.1h.59Zm.74,0h-.6v-.1H39Zm.73,0h-.6v-.1h.6Zm.73,0h-.6v-.1h.6Zm.73,0h-.6v-.1h.6Zm.73,0h-.6v-.1h.6Zm.73,0H42v-.1h.59Zm.73,0h-.59v-.1h.59Zm.73,0h-.59v-.1h.59Zm.73,0h-.59v-.1h.59Zm.73,0H45v-.1h.59Zm.73,0h-.59v-.1h.59Zm.73,0h-.59v-.1H47Zm.73,0h-.59v-.1h.59Zm.73,0h-.59v-.1h.59Zm.73,0H48.6v-.1h.59Zm.73,0h-.59v-.1h.59Zm.74,0h-.6v-.1h.6Zm.73,0h-.6v-.1h.6Zm.73,0h-.6v-.1h.6Zm.73,0h-.6v-.1h.6Zm.73,0H53v-.1h.6Zm.73,0h-.59v-.1h.59Z" transform="translate(-9.09 -5.26)"/><polygon class="cls-6" points="22.57 9.57 22.57 9.64 22.55 9.61 22.01 9.61 21.98 9.64 21.98 9.57 22.57 9.57"/><polygon class="cls-6" points="23.3 9.57 23.3 9.64 23.27 9.61 22.74 9.61 22.71 9.64 22.71 9.57 23.3 9.57"/><polygon class="cls-6" points="24.03 9.57 24.03 9.6 24 9.59 23.48 9.59 23.44 9.61 23.44 9.57 24.03 9.57"/><polygon class="cls-6" points="24.77 9.57 24.77 9.6 24.74 9.59 24.21 9.59 24.17 9.61 24.17 9.57 24.77 9.57"/><polygon class="cls-6" points="25.5 9.57 25.5 9.6 25.47 9.59 24.94 9.59 24.9 9.61 24.9 9.57 25.5 9.57"/><polygon class="cls-6" points="26.23 9.57 26.23 9.6 26.2 9.59 25.67 9.59 25.63 9.61 25.63 9.57 26.23 9.57"/><polygon class="cls-6" points="26.96 9.57 26.96 9.6 26.93 9.59 26.4 9.59 26.36 9.61 26.36 9.57 26.96 9.57"/><polygon class="cls-6" points="27.69 9.57 27.69 9.6 27.66 9.59 27.13 9.59 27.09 9.61 27.09 9.57 27.69 9.57"/><polygon class="cls-6" points="28.42 9.57 28.42 9.6 28.39 9.59 27.86 9.59 27.82 9.61 27.82 9.57 28.42 9.57"/><polygon class="cls-6" points="29.15 9.57 29.15 9.6 29.12 9.59 28.59 9.59 28.55 9.61 28.55 9.57 29.15 9.57"/><polygon class="cls-6" points="29.88 9.57 29.88 9.6 29.85 9.59 29.32 9.59 29.29 9.61 29.29 9.57 29.88 9.57"/><polygon class="cls-6" points="30.61 9.57 30.61 9.6 30.58 9.59 30.05 9.59 30.02 9.61 30.02 9.57 30.61 9.57"/><polygon class="cls-6" points="31.34 9.57 31.34 9.6 31.31 9.59 30.79 9.59 30.75 9.61 30.75 9.57 31.34 9.57"/><polygon class="cls-6" points="32.07 9.57 32.07 9.6 32.04 9.59 31.52 9.59 31.48 9.61 31.48 9.57 32.07 9.57"/><polygon class="cls-6" points="32.8 9.57 32.8 9.6 32.77 9.59 32.25 9.59 32.21 9.61 32.21 9.57 32.8 9.57"/><polygon class="cls-6" points="33.53 9.57 33.53 9.6 33.5 9.59 32.98 9.59 32.94 9.61 32.94 9.57 33.53 9.57"/><polygon class="cls-6" points="34.26 9.57 34.26 9.6 34.23 9.59 33.71 9.59 33.67 9.61 33.67 9.57 34.26 9.57"/><polygon class="cls-6" points="34.99 9.57 34.99 9.6 34.96 9.59 34.44 9.59 34.4 9.61 34.4 9.57 34.99 9.57"/><polygon class="cls-6" points="35.72 9.57 35.72 9.6 35.69 9.59 35.17 9.59 35.13 9.61 35.13 9.57 35.72 9.57"/><polygon class="cls-6" points="36.45 9.57 36.45 9.6 36.42 9.59 35.9 9.59 35.86 9.61 35.86 9.57 36.45 9.57"/><polygon class="cls-6" points="37.18 9.57 37.18 9.6 37.16 9.59 36.63 9.59 36.59 9.61 36.59 9.57 37.18 9.57"/><polygon class="cls-6" points="37.91 9.57 37.91 9.6 37.88 9.59 37.36 9.59 37.32 9.61 37.32 9.57 37.91 9.57"/><polygon class="cls-6" points="38.65 9.57 38.65 9.6 38.62 9.59 38.09 9.59 38.05 9.61 38.05 9.57 38.65 9.57"/><polygon class="cls-6" points="39.38 9.57 39.38 9.6 39.35 9.59 38.82 9.59 38.78 9.61 38.78 9.57 39.38 9.57"/><polygon class="cls-6" points="40.11 9.57 40.11 9.6 40.08 9.59 39.55 9.59 39.51 9.61 39.51 9.57 40.11 9.57"/><polygon class="cls-6" points="40.84 9.57 40.84 9.6 40.81 9.59 40.28 9.59 40.24 9.61 40.24 9.57 40.84 9.57"/><polygon class="cls-6" points="41.57 9.57 41.57 9.6 41.54 9.59 41.01 9.59 40.97 9.61 40.97 9.57 41.57 9.57"/><polygon class="cls-6" points="42.3 9.57 42.3 9.6 42.27 9.59 41.74 9.59 41.7 9.61 41.7 9.57 42.3 9.57"/><polygon class="cls-6" points="43.03 9.57 43.03 9.6 43 9.59 42.47 9.59 42.44 9.61 42.44 9.57 43.03 9.57"/><polygon class="cls-6" points="43.76 9.57 43.76 9.6 43.73 9.59 43.2 9.59 43.17 9.61 43.17 9.57 43.76 9.57"/><polygon class="cls-6" points="44.49 9.57 44.49 9.6 44.46 9.59 43.94 9.59 43.9 9.61 43.9 9.57 44.49 9.57"/><polygon class="cls-6" points="45.22 9.57 45.22 9.6 45.19 9.59 44.67 9.59 44.63 9.61 44.63 9.57 45.22 9.57"/><path class="cls-2" d="M54.81,16.5v8.77h2.3V16.5ZM28,25.27h2.3V16.5H28Z" transform="translate(-9.09 -5.26)"/><path class="cls-7" d="M57.74,14.83a1.07,1.07,0,0,0-.86-.93l-.2,0H54.47V15H30.7V13.92H28.65l-.22,0a1.12,1.12,0,0,0-.94,1l-.1,18.7a1.07,1.07,0,0,0,1.15,1.06h12s0-.14.25-.17l3.73,0s.15,0,.16.16H56.72a1.08,1.08,0,0,0,1.11-1.14ZM30.33,25.27H28V16.5h2.3ZM47,33.12a.36.36,0,0,1-.37.37h-8.2a.36.36,0,0,1-.37-.37V27.33a.37.37,0,0,1,.37-.38h8.2a.37.37,0,0,1,.37.38Zm7.29-7.53H31.15c-.37,0-.31-.21-.31-.21v-9a.22.22,0,0,1,.22-.22H54.15c.45,0,.37.23.37.23v9C54.54,25.62,54.33,25.59,54.33,25.59Zm2.78-.32h-2.3V16.5h2.3Z" transform="translate(-9.09 -5.26)"/><path class="cls-8" d="M44.65,34.79H40.51s0-.14.25-.17l3.73,0S44.64,34.68,44.65,34.79Z" transform="translate(-9.09 -5.26)"/><rect class="cls-3" x="23.44" y="9.57" width="0.59" height="0.09"/><rect class="cls-3" x="24.17" y="9.57" width="0.59" height="0.09"/><rect class="cls-3" x="24.9" y="9.57" width="0.59" height="0.09"/><rect class="cls-3" x="25.63" y="9.57" width="0.59" height="0.09"/><rect class="cls-3" x="26.36" y="9.57" width="0.59" height="0.09"/><rect class="cls-3" x="27.09" y="9.57" width="0.59" height="0.09"/><rect class="cls-3" x="27.83" y="9.57" width="0.59" height="0.09"/><rect class="cls-3" x="28.56" y="9.57" width="0.59" height="0.09"/><rect class="cls-3" x="29.29" y="9.57" width="0.59" height="0.09"/><rect class="cls-3" x="30.02" y="9.57" width="0.59" height="0.09"/><rect class="cls-3" x="30.75" y="9.57" width="0.59" height="0.09"/><rect class="cls-3" x="31.48" y="9.57" width="0.59" height="0.09"/><rect class="cls-3" x="32.21" y="9.57" width="0.59" height="0.09"/><rect class="cls-3" x="32.94" y="9.57" width="0.59" height="0.09"/><rect class="cls-3" x="33.67" y="9.57" width="0.59" height="0.09"/><rect class="cls-3" x="34.4" y="9.57" width="0.59" height="0.09"/><rect class="cls-3" x="35.13" y="9.57" width="0.59" height="0.09"/><rect class="cls-3" x="35.86" y="9.57" width="0.59" height="0.09"/><rect class="cls-3" x="36.59" y="9.57" width="0.59" height="0.09"/><rect class="cls-3" x="37.32" y="9.57" width="0.59" height="0.09"/><rect class="cls-3" x="38.05" y="9.57" width="0.59" height="0.09"/><rect class="cls-3" x="38.78" y="9.57" width="0.59" height="0.09"/><rect class="cls-3" x="39.52" y="9.57" width="0.59" height="0.09"/><rect class="cls-3" x="40.25" y="9.57" width="0.59" height="0.09"/><rect class="cls-3" x="40.98" y="9.57" width="0.59" height="0.09"/><rect class="cls-3" x="41.71" y="9.57" width="0.59" height="0.09"/><rect class="cls-3" x="42.44" y="9.57" width="0.59" height="0.09"/><rect class="cls-3" x="43.17" y="9.57" width="0.59" height="0.09"/><rect class="cls-3" x="43.9" y="9.57" width="0.59" height="0.09"/><rect class="cls-3" x="44.63" y="9.57" width="0.59" height="0.09"/><rect class="cls-4" x="45.72" y="11.24" width="2.3" height="8.77"/><path class="cls-2" d="M44.65,34.8h0" transform="translate(-9.09 -5.26)"/><path class="cls-9" d="M59.33,5.26s-33.1,0-33.8.07-.62.54-.62.54l2.59,7.71c.22.41.93.38.93.38l.22,0H30.7v-.24H54.47v.18h2.21l.2,0c.71.07.78-.29.78-.29l2.45-7.77C60.27,5.25,59.33,5.26,59.33,5.26Zm-2.45,8H28.55L26.37,6H58.92Z" transform="translate(-9.09 -5.26)"/><polygon class="cls-10" points="49.84 0.72 47.8 7.97 19.46 7.96 17.28 0.72 49.84 0.72"/><path class="cls-11" d="M46.67,27h-8.2a.37.37,0,0,0-.37.38v5.79a.36.36,0,0,0,.37.37h8.2a.36.36,0,0,0,.37-.37V27.33A.37.37,0,0,0,46.67,27Zm.3,6.17a.31.31,0,0,1-.3.3h-8.2a.31.31,0,0,1-.3-.3V27.33a.3.3,0,0,1,.3-.3h8.2a.3.3,0,0,1,.3.3Z" transform="translate(-9.09 -5.26)"/><rect class="cls-2" x="29.09" y="21.77" width="8.79" height="6.39" rx="0.3"/><rect class="cls-12" x="29.09" y="21.77" width="8.79" height="6.39" rx="0.3"/><path class="cls-2" d="M54.52,25.33c0,.29-.19.26-.19.26H31.15c-.37,0-.31-.21-.31-.21v-9a.22.22,0,0,1,.22-.22H54.15c.45,0,.37.23.37.23Z" transform="translate(-9.09 -5.26)"/><rect class="cls-13" x="21.61" y="8.42" width="23.77" height="0.82"/><polygon class="cls-3" points="22.57 9.64 22.57 9.64 21.98 9.64 22.01 9.61 22.55 9.61 22.57 9.64"/><polygon class="cls-6" points="24.03 9.57 24.03 9.64 24.01 9.61 23.47 9.61 23.44 9.64 23.44 9.57 24.03 9.57"/><polygon class="cls-6" points="24.76 9.57 24.76 9.64 24.74 9.61 24.2 9.61 24.17 9.64 24.17 9.57 24.76 9.57"/><polygon class="cls-6" points="25.49 9.57 25.49 9.64 25.47 9.61 24.93 9.61 24.9 9.64 24.9 9.57 25.49 9.57"/><polygon class="cls-6" points="26.22 9.57 26.22 9.64 26.2 9.61 25.66 9.61 25.63 9.64 25.63 9.57 26.22 9.57"/><polygon class="cls-6" points="26.95 9.57 26.95 9.64 26.93 9.61 26.39 9.61 26.36 9.64 26.36 9.57 26.95 9.57"/><polygon class="cls-6" points="27.68 9.57 27.68 9.64 27.66 9.61 27.12 9.61 27.09 9.64 27.09 9.57 27.68 9.57"/><polygon class="cls-6" points="28.41 9.57 28.41 9.64 28.39 9.61 27.85 9.61 27.82 9.64 27.82 9.57 28.41 9.57"/><polygon class="cls-6" points="29.15 9.57 29.15 9.64 29.12 9.61 28.58 9.61 28.55 9.64 28.55 9.57 29.15 9.57"/><polygon class="cls-6" points="29.88 9.57 29.88 9.64 29.85 9.61 29.31 9.61 29.28 9.64 29.28 9.57 29.88 9.57"/><polygon class="cls-6" points="30.61 9.57 30.61 9.64 30.58 9.61 30.04 9.61 30.01 9.64 30.01 9.57 30.61 9.57"/><polygon class="cls-6" points="31.34 9.57 31.34 9.64 31.31 9.61 30.77 9.61 30.74 9.64 30.74 9.57 31.34 9.57"/><polygon class="cls-6" points="32.07 9.57 32.07 9.64 32.04 9.61 31.5 9.61 31.47 9.64 31.47 9.57 32.07 9.57"/><polygon class="cls-6" points="32.8 9.57 32.8 9.64 32.77 9.61 32.23 9.61 32.2 9.64 32.2 9.57 32.8 9.57"/><polygon class="cls-6" points="33.53 9.57 33.53 9.64 33.5 9.61 32.97 9.61 32.94 9.64 32.94 9.57 33.53 9.57"/><polygon class="cls-6" points="34.26 9.57 34.26 9.64 34.23 9.61 33.7 9.61 33.66 9.64 33.66 9.57 34.26 9.57"/><polygon class="cls-6" points="34.99 9.57 34.99 9.64 34.96 9.61 34.42 9.61 34.4 9.64 34.4 9.57 34.99 9.57"/><polygon class="cls-6" points="35.72 9.57 35.72 9.64 35.69 9.61 35.16 9.61 35.13 9.64 35.13 9.57 35.72 9.57"/><polygon class="cls-6" points="36.45 9.57 36.45 9.64 36.42 9.61 35.89 9.61 35.86 9.64 35.86 9.57 36.45 9.57"/><polygon class="cls-6" points="37.18 9.57 37.18 9.64 37.15 9.61 36.62 9.61 36.59 9.64 36.59 9.57 37.18 9.57"/><polygon class="cls-6" points="37.91 9.57 37.91 9.64 37.88 9.61 37.35 9.61 37.32 9.64 37.32 9.57 37.91 9.57"/><polygon class="cls-6" points="38.64 9.57 38.64 9.64 38.61 9.61 38.08 9.61 38.05 9.64 38.05 9.57 38.64 9.57"/><polygon class="cls-6" points="39.37 9.57 39.37 9.64 39.34 9.61 38.81 9.61 38.78 9.64 38.78 9.57 39.37 9.57"/><polygon class="cls-6" points="40.1 9.57 40.1 9.64 40.07 9.61 39.54 9.61 39.51 9.64 39.51 9.57 40.1 9.57"/><polygon class="cls-6" points="40.83 9.57 40.83 9.64 40.8 9.61 40.27 9.61 40.24 9.64 40.24 9.57 40.83 9.57"/><polygon class="cls-6" points="41.56 9.57 41.56 9.64 41.53 9.61 41 9.61 40.97 9.64 40.97 9.57 41.56 9.57"/><polygon class="cls-6" points="42.29 9.57 42.29 9.64 42.26 9.61 41.73 9.61 41.7 9.64 41.7 9.57 42.29 9.57"/><polygon class="cls-6" points="43.02 9.57 43.02 9.64 42.99 9.61 42.46 9.61 42.43 9.64 42.43 9.57 43.02 9.57"/><polygon class="cls-6" points="43.75 9.57 43.75 9.64 43.72 9.61 43.19 9.61 43.16 9.64 43.16 9.57 43.75 9.57"/><polygon class="cls-6" points="44.48 9.57 44.48 9.64 44.45 9.61 43.92 9.61 43.89 9.64 43.89 9.57 44.48 9.57"/><polygon class="cls-6" points="45.21 9.57 45.21 9.64 45.19 9.61 44.65 9.61 44.62 9.64 44.62 9.57 45.21 9.57"/><path class="cls-2" d="M10.37,22.52v.32h.53v-.32Zm.53,1.87v.12h-.53v.32h.53v.09h.41v-.53Zm0,1v.09h-.53v.33h.53v.11h.41v-.53Zm0,1v.07h-.53v.32h.53V27h.41v-.53Zm0,1v0h-.53v.33h.53V28h.41v-.54Zm0,1v0h-.53v.32h.53V29h.41v-.54Zm.28,2s0,0,0,0h-.78v.32h.53V31h.41V30.5Zm-.81-1v.33h.53V30h.41v-.54Zm.82,2h0a0,0,0,0,0,0,0h-.78v.33h.53v.26h.41v-.54Zm0,1h0v0s0,0,0,0h-.78v.32h.53v.28h.41v-.53Zm-.28-9.17v.14h-.53v.33h.53v.06h.41v-.53Z" transform="translate(-9.09 -5.26)"/><path class="cls-14" d="M20.36,21.34l-.06,12.9H10.37V32.79h.53v.28h.41v-.53h-.12v0s0,0,0,0h-.78V31.8h.53v.26h.41v-.54h-.12a0,0,0,0,0,0,0h-.78V30.8h.53V31h.41V30.5h-.13s0,0,0,0h-.78v-.67h.53V30h.41v-.54h-.94v-.67h.53V29h.41v-.54H10.9v0h-.53v-.67h.53V28h.41v-.54H10.9v0h-.53v-.67h.53V27h.41v-.53H10.9v.07h-.53v-.67h.53v.11h.41v-.53H10.9v.09h-.53v-.67h.53v.09h.41v-.53H10.9v.12h-.53v-.67h.53v.06h.41v-.53H10.9v.14h-.53v-.67h.53v0h.41v-.53H10.9v.17h-.53V21.34Z" transform="translate(-9.09 -5.26)"/><rect class="cls-15" x="1.81" y="17.09" width="0.16" height="0.53"/><rect class="cls-16" x="1.97" y="17.09" width="0.25" height="0.53"/><rect class="cls-15" x="1.81" y="18.11" width="0.16" height="0.53"/><rect class="cls-16" x="1.97" y="18.11" width="0.25" height="0.53"/><rect class="cls-15" x="1.81" y="19.13" width="0.16" height="0.53"/><rect class="cls-16" x="1.97" y="19.13" width="0.25" height="0.53"/><rect class="cls-15" x="1.81" y="20.15" width="0.16" height="0.53"/><rect class="cls-16" x="1.97" y="20.15" width="0.25" height="0.53"/><rect class="cls-15" x="1.81" y="21.17" width="0.16" height="0.53"/><rect class="cls-16" x="1.97" y="21.17" width="0.25" height="0.53"/><rect class="cls-15" x="1.81" y="22.19" width="0.16" height="0.53"/><rect class="cls-16" x="1.97" y="22.19" width="0.25" height="0.53"/><rect class="cls-15" x="1.81" y="23.21" width="0.16" height="0.53"/><rect class="cls-16" x="1.97" y="23.21" width="0.25" height="0.53"/><rect class="cls-15" x="1.81" y="24.23" width="0.16" height="0.53"/><rect class="cls-16" x="1.97" y="24.23" width="0.25" height="0.53"/><rect class="cls-15" x="1.81" y="25.24" width="0.16" height="0.53"/><rect class="cls-16" x="1.97" y="25.24" width="0.25" height="0.53"/><rect class="cls-15" x="1.81" y="26.26" width="0.16" height="0.53"/><rect class="cls-16" x="1.97" y="26.26" width="0.25" height="0.53"/><rect class="cls-15" x="1.81" y="27.28" width="0.16" height="0.53"/><rect class="cls-16" x="1.97" y="27.28" width="0.25" height="0.53"/><rect class="cls-17" y="17.26" width="2.1" height="0.1" rx="0.03"/><rect class="cls-17" y="17.49" width="2.1" height="0.1" rx="0.03"/><rect class="cls-17" y="18.25" width="2.1" height="0.1" rx="0.03"/><rect class="cls-17" y="18.48" width="2.1" height="0.1" rx="0.03"/><rect class="cls-17" y="19.25" width="2.1" height="0.1" rx="0.03"/><rect class="cls-17" y="19.48" width="2.1" height="0.1" rx="0.03"/><rect class="cls-17" y="20.25" width="2.1" height="0.1" rx="0.03"/><rect class="cls-17" y="20.47" width="2.1" height="0.1" rx="0.03"/><rect class="cls-17" y="21.24" width="2.1" height="0.1" rx="0.03"/><rect class="cls-17" y="21.47" width="2.1" height="0.1" rx="0.03"/><rect class="cls-17" y="22.24" width="2.1" height="0.1" rx="0.03"/><rect class="cls-17" y="22.46" width="2.1" height="0.1" rx="0.03"/><rect class="cls-17" y="23.3" width="2.1" height="0.1" rx="0.03"/><rect class="cls-17" y="23.52" width="2.1" height="0.1" rx="0.03"/><rect class="cls-17" y="24.32" width="2.1" height="0.1" rx="0.03"/><rect class="cls-17" y="24.55" width="2.1" height="0.1" rx="0.03"/><path class="cls-17" d="M11.19,30.63v0s0,0,0,0h-2a0,0,0,0,1,0,0v0a0,0,0,0,1,0,0h2s0,0,0,0Z" transform="translate(-9.09 -5.26)"/><rect class="cls-17" y="25.56" width="2.1" height="0.1" rx="0.03"/><rect class="cls-17" y="26.38" width="2.1" height="0.1" rx="0.03"/><rect class="cls-17" y="26.6" width="2.1" height="0.1" rx="0.03"/><path class="cls-17" d="M11.19,32.64v0h0a0,0,0,0,1,0,0h-2s0,0,0,0v0a0,0,0,0,1,0,0h2A0,0,0,0,1,11.19,32.64Z" transform="translate(-9.09 -5.26)"/><rect class="cls-17" y="27.58" width="2.1" height="0.1" rx="0.03"/><polygon class="cls-18" points="15.41 19.71 15.41 25.12 15.38 25.17 14.8 25.17 14.78 25.12 14.78 19.71 15.41 19.71"/><polygon class="cls-19" points="15.38 25.17 15.38 25.26 15.34 27.57 15.15 27.72 15.16 28.18 15.02 28.18 15.02 27.72 14.8 27.57 14.8 25.17 15.38 25.17"/><line class="cls-2" x1="15.11" y1="25.12" x2="15.08" y2="25.17"/><path class="cls-20" d="M23.85,24.17h.75a.06.06,0,0,1,.06.06v2.65a.06.06,0,0,1-.06.06h0a.06.06,0,0,1-.06-.06V25a.06.06,0,0,0-.06-.06h-.63a.06.06,0,0,1-.06-.06v-.69A.06.06,0,0,1,23.85,24.17Z" transform="translate(-9.09 -5.26)"/><rect class="cls-21" x="14.81" y="18.14" width="0.56" height="0.77"/><polygon class="cls-22" points="14.81 18.14 14.77 18.14 14.77 17.92 15.41 17.92 15.41 18.14 14.81 18.14"/><rect class="cls-23" x="14.88" y="17.18" width="0.42" height="0.73"/></svg>