<svg id="Layer_1" data-name="Layer 1" xmlns="http://www.w3.org/2000/svg" xmlns:xlink="http://www.w3.org/1999/xlink" viewBox="0 0 69.22 40.05"><defs><style>.cls-1{fill:#fff;}.cls-2{fill:none;}.cls-3{fill:#b7b7b7;}.cls-4{fill:#c3c4c4;}.cls-5{fill:#616261;}.cls-6{fill:#414042;}.cls-7{fill:url(#linear-gradient);}.cls-8{fill:#7d7d7d;}.cls-9{fill:#111;}.cls-10{fill:#2d2d2d;}.cls-11{fill:#898989;}.cls-12{fill:#afb0af;}.cls-13{fill:url(#linear-gradient-2);}.cls-14{fill:#1d1e21;}.cls-15{fill:#a29f9a;}.cls-16{fill:#161415;}.cls-17{fill:#161719;}.cls-18{fill:#151519;}.cls-19{fill:#0c0c0c;}.cls-20{fill:#7f7f80;}.cls-21{fill:#121111;}.cls-22{fill:#955556;}.cls-23{fill:#2c2b2e;}</style><linearGradient id="linear-gradient" x1="45.46" y1="10.52" x2="45.46" y2="35.69" gradientUnits="userSpaceOnUse"><stop offset="0" stop-color="#a4a3a4"/><stop offset="0.51" stop-color="#d7d8d8"/><stop offset="1" stop-color="#a4a3a4"/></linearGradient><linearGradient id="linear-gradient-2" x1="45.42" y1="11.43" x2="45.42" y2="12.49" gradientUnits="userSpaceOnUse"><stop offset="0.15"/><stop offset="0.17" stop-color="#0a0a0a"/><stop offset="0.2" stop-color="#242424"/><stop offset="0.24" stop-color="#505050"/><stop offset="0.29" stop-color="#8b8b8b"/><stop offset="0.29" stop-color="#8c8c8c"/><stop offset="0.32" stop-color="#6d6d6d"/><stop offset="0.36" stop-color="#3e3e3e"/><stop offset="0.4" stop-color="#1c1c1c"/><stop offset="0.43" stop-color="#080808"/><stop offset="0.45"/><stop offset="1"/></linearGradient></defs><path class="cls-1" d="M26.86,13.66H63.6V28.87H26.86ZM44.34,25H39.42c-.28,0-.39.1-.38.38,0,.46,0,.91,0,1.36s.05.42.41.42h9.83c.36,0,.41-.06.41-.41s0-.85,0-1.27,0-.48-.47-.48Zm14.49-.28h2c.27,0,.38-.1.38-.36s0-.75,0-1.12-.1-.37-.36-.37H56.86c-.27,0-.37.12-.36.38s0,.7,0,1.05.07.42.42.42ZM31.56,22.62H33c.26,0,.39-.1.39-.36s0-.76,0-1.15c0-.23-.1-.34-.34-.34H30.13c-.24,0-.34.11-.33.34s0,.76,0,1.14.12.37.38.36C30.63,22.61,31.1,22.62,31.56,22.62Zm29.59-2h0V19c0-.21-.05-.35-.28-.35-.46,0-.91,0-1.36,0-.1,0-.25.16-.26.26,0,.42,0,.84,0,1.26,0,.18.09.31.29.3s.26.11.26.31c0,.49,0,1,0,1.48,0,.23.11.34.33.34h.68c.27,0,.37-.11.37-.38C61.14,21.71,61.15,21.17,61.15,20.64Zm-1.53-2.28h1.15c.24,0,.36-.09.36-.34s0-.78,0-1.18a.29.29,0,0,0-.32-.33H58.43c-.22,0-.32.11-.32.33,0,.39,0,.78,0,1.17,0,.24.11.36.36.35ZM31.31,20.5c.38,0,.76,0,1.14,0a.31.31,0,0,0,.35-.34V19c0-.22-.09-.33-.31-.33H30.12c-.21,0-.31.1-.31.3,0,.4,0,.8,0,1.2,0,.24.11.34.34.34Q30.73,20.49,31.31,20.5ZM51.2,27.18h.89c.24,0,.34-.1.34-.33,0-.5,0-1,0-1.49,0-.24-.11-.33-.34-.33-.6,0-1.2,0-1.79,0-.24,0-.34.11-.34.34,0,.49,0,1,0,1.48,0,.26.13.35.37.34ZM37.56,25h-1a.24.24,0,0,0-.28.28c0,.53,0,1.05,0,1.58a.26.26,0,0,0,.29.28h1.86a.27.27,0,0,0,.3-.3V25.32c0-.21-.1-.3-.3-.29ZM31,24.74h.9a.3.3,0,0,0,.35-.35V23.24c0-.25-.11-.35-.35-.35H30.12c-.23,0-.34.1-.34.33v1.18c0,.23.11.33.34.33Zm23.63,1.37h0c0-.26,0-.52,0-.78a.27.27,0,0,0-.3-.31c-.44,0-.88,0-1.32,0-.21,0-.3.11-.3.31v1.51a.3.3,0,0,0,.34.34h1.24c.25,0,.35-.12.35-.36Zm4.36,0h0v-.77c0-.21-.1-.31-.3-.31-.43,0-.86,0-1.3,0-.22,0-.32.11-.31.33v1.48c0,.23.1.34.33.34.42,0,.83,0,1.24,0,.25,0,.36-.12.35-.36S59,26.34,59,26.1Zm-27.29,0v-.77A.26.26,0,0,0,31.4,25H30.07c-.19,0-.29.09-.29.28,0,.51,0,1,0,1.54,0,.2.09.31.3.31h1.3c.22,0,.31-.12.31-.33Zm2.17,0h0c0-.24,0-.49,0-.74s-.1-.34-.34-.34q-.63,0-1.26,0a.29.29,0,0,0-.32.33v1.51a.27.27,0,0,0,.3.31c.43,0,.86,0,1.29,0,.22,0,.32-.11.32-.33Zm2.18,0h0v-.77c0-.22-.1-.33-.32-.33q-.63,0-1.26,0c-.22,0-.33.1-.33.32v1.51a.27.27,0,0,0,.31.32c.43,0,.85,0,1.27,0,.24,0,.33-.12.33-.34Zm5.05-3.5h.61a.29.29,0,0,0,.35-.33c0-.39,0-.78,0-1.17s-.12-.36-.37-.36H40.46c-.24,0-.34.11-.34.34,0,.39,0,.78,0,1.17,0,.23.1.35.34.34Zm8.6,1.2h0V23.2c0-.2-.09-.31-.29-.31-.45,0-.89,0-1.33,0-.2,0-.3.1-.3.31v1.23a.28.28,0,0,0,.3.32h1.32a.27.27,0,0,0,.3-.31Zm-3.14.93c.2,0,.41,0,.61,0s.36-.12.36-.36c0-.39,0-.78,0-1.17a.28.28,0,0,0-.31-.33H45.87a.26.26,0,0,0-.28.29c0,.42,0,.85,0,1.27a.27.27,0,0,0,.31.3Zm1.08-4H47c-.2,0-.31.09-.31.3v1.23c0,.22.1.33.32.33h1.3a.27.27,0,0,0,.3-.3V21.05a.25.25,0,0,0-.28-.28Zm7.66,4h.65a.27.27,0,0,0,.31-.3c0-.42,0-.84,0-1.27a.25.25,0,0,0-.28-.28c-.46,0-.91,0-1.36,0-.1,0-.26.16-.26.26,0,.43,0,.86,0,1.29a.26.26,0,0,0,.31.29Zm-9.87-2.12h.65c.23,0,.35-.09.35-.33q0-.6,0-1.2a.28.28,0,0,0-.32-.32H44.8c-.21,0-.31.1-.31.32,0,.39,0,.78,0,1.17s.12.37.38.36Zm2.74-4.26h.65a.28.28,0,0,0,.33-.32c0-.4,0-.8,0-1.2,0-.22-.09-.33-.31-.33h-1.3a.27.27,0,0,0-.31.3c0,.42,0,.83,0,1.24,0,.22.11.32.33.32Zm6,4.26h.65c.22,0,.33-.1.33-.32,0-.41,0-.81,0-1.21,0-.22-.1-.33-.32-.33h-1.3c-.22,0-.31.12-.31.33v.59C53.23,22.7,53.09,22.62,54.17,22.62ZM52,20.76h-.71c-.19,0-.29.09-.28.28v1.27a.27.27,0,0,0,.3.3h1.33a.26.26,0,0,0,.28-.29c0-.43,0-.85,0-1.27,0-.2-.1-.3-.31-.3Zm4.86-4.25h-.68c-.18,0-.29.1-.28.29V18a.28.28,0,0,0,.32.32h1.3a.27.27,0,0,0,.3-.31c0-.41,0-.82,0-1.23,0-.21-.1-.31-.3-.31ZM43.28,20.77h-.65a.28.28,0,0,0-.32.32c0,.39,0,.78,0,1.18,0,.24.11.36.35.35H43.9a.3.3,0,0,0,.34-.34c0-.4,0-.79,0-1.18a.3.3,0,0,0-.34-.34Zm6.55,1.85h.65a.27.27,0,0,0,.3-.31V21.07a.26.26,0,0,0-.3-.3H49.15a.24.24,0,0,0-.28.28c0,.41,0,.83,0,1.24,0,.23.12.33.35.33Zm-5.46,2.13H45a.25.25,0,0,0,.29-.27c0-.44,0-.87,0-1.3a.38.38,0,0,0-.25-.27c-.45,0-.91,0-1.36,0-.1,0-.27.16-.27.26,0,.43,0,.86,0,1.29a.28.28,0,0,0,.32.3C43.94,24.74,44.15,24.75,44.37,24.75Zm-1.23-.93c0-.19,0-.39,0-.58s-.12-.36-.36-.35H41.55c-.23,0-.33.11-.33.34v1.2c0,.2.09.32.29.32h1.33a.28.28,0,0,0,.3-.31ZM40,24.74h.62c.25,0,.35-.12.35-.36V23.21a.29.29,0,0,0-.32-.32h-1.3a.27.27,0,0,0-.3.31v1.24a.27.27,0,0,0,.3.3Zm-.54-6.37h.62c.22,0,.34-.09.34-.33v-1.2a.28.28,0,0,0-.32-.32H38.83c-.21,0-.33.09-.33.31v1.24a.27.27,0,0,0,.3.3C39,18.36,39.23,18.37,39.45,18.37Zm19.14,4.25c.19,0,.39,0,.58,0a.3.3,0,0,0,.34-.34c0-.39,0-.78,0-1.17,0-.23-.09-.35-.32-.35H57.91a.28.28,0,0,0-.32.32q0,.6,0,1.2c0,.24.12.34.35.34S58.37,22.62,58.59,22.62Zm-20.77.27h-.65a.27.27,0,0,0-.3.3v1.24c0,.22.09.32.31.31h1.27c.22,0,.32-.1.32-.31,0-.41,0-.81,0-1.21,0-.23-.12-.33-.35-.33Zm1.09-2.12h-.65c-.22,0-.32.11-.32.33,0,.39,0,.78,0,1.17s.12.36.36.35h1.2c.24,0,.37-.1.36-.35V21.1c0-.24-.1-.34-.33-.33Zm11.45-2.41H51q.35,0,.33-.33c0-.39,0-.78,0-1.17s-.11-.36-.35-.35H49.72a.28.28,0,0,0-.32.32q0,.62,0,1.23c0,.2.1.31.31.3ZM36.74,20.77h-.68c-.19,0-.28.1-.28.29,0,.42,0,.84,0,1.26a.27.27,0,0,0,.29.3h1.32a.28.28,0,0,0,.31-.31V21.08c0-.21-.1-.31-.3-.31Zm-2.21,1.85h.65a.29.29,0,0,0,.33-.32V21.07a.27.27,0,0,0-.29-.3H33.89c-.18,0-.28.09-.29.29v1.23c0,.24.12.34.34.33Zm18.56,2.13h.62c.24,0,.36-.11.36-.35V23.23c0-.23-.1-.35-.34-.35H52.47c-.24,0-.33.11-.33.34s0,.74,0,1.11.05.4.42.41Zm1.63-6.39h.65a.27.27,0,0,0,.31-.3V16.83a.29.29,0,0,0-.33-.32h-1.3a.26.26,0,0,0-.29.28c0,.43,0,.85,0,1.27a.27.27,0,0,0,.3.3Zm-8.77,0h.68A.28.28,0,0,0,47,18v-1.2a.29.29,0,0,0-.32-.33h-1.3c-.2,0-.3.1-.3.31v.64C45.05,18.49,44.92,18.35,46,18.36ZM56.4,20.77h-.68a.27.27,0,0,0-.32.29c0,.42,0,.85,0,1.27a.4.4,0,0,0,.28.27c.44,0,.89,0,1.33,0,.19,0,.29-.1.29-.29V21.06c0-.2-.1-.3-.31-.3Zm-23,4h.62c.25,0,.36-.1.35-.35s0-.78,0-1.17c0-.23-.11-.32-.32-.32H32.8a.26.26,0,0,0-.29.28c0,.41,0,.83,0,1.24,0,.21.1.33.32.32Zm8.19-6.37h0c.2,0,.41,0,.61,0s.35-.09.35-.33c0-.4,0-.8,0-1.2a.28.28,0,0,0-.32-.32H41a.3.3,0,0,0-.34.34c0,.4,0,.8,0,1.2,0,.2.09.31.3.31S41.41,18.37,41.63,18.37Zm9.28,6.37h.59c.26,0,.38-.1.38-.37s0-.76,0-1.14-.1-.36-.35-.35h-1.2c-.25,0-.37.09-.36.34v1.18c0,.23.1.35.34.34ZM37.29,16.52h-.65a.29.29,0,0,0-.32.33q0,.6,0,1.2c0,.23.11.32.33.32h1.26a.29.29,0,0,0,.33-.32v-.93c0-.59,0-.6-.61-.6Zm14.18,4h.62c.22,0,.33-.1.33-.32,0-.41,0-.83,0-1.24,0-.21-.11-.29-.31-.29H50.8a.27.27,0,0,0-.31.3c0,.41,0,.82,0,1.23,0,.22.11.32.33.32Zm-15.83,2.4H35c-.23,0-.34.1-.34.33v1.2c0,.21.09.33.32.32h1.23c.24,0,.36-.1.36-.35s0-.78,0-1.17-.11-.34-.33-.34Zm-.56-4.52h.62c.24,0,.36-.1.36-.35s0-.78,0-1.17a.28.28,0,0,0-.32-.32h-1.3c-.19,0-.29.08-.29.28,0,.42,0,.84,0,1.27,0,.21.12.29.31.29Zm17.45-1.86h-.65c-.2,0-.3.1-.3.31,0,.41,0,.82,0,1.23,0,.2.09.31.29.31h1.33a.26.26,0,0,0,.28-.29c0-.42,0-.84,0-1.27,0-.2-.11-.29-.31-.29Zm1.11,4h.65a.27.27,0,0,0,.31-.3c0-.42,0-.84,0-1.26a.38.38,0,0,0-.25-.27c-.46,0-.93,0-1.39,0a.38.38,0,0,0-.25.27c0,.42,0,.85,0,1.27a.27.27,0,0,0,.31.29Zm2.16,0h.67c.21,0,.31-.1.31-.3,0-.41,0-.82,0-1.23a.27.27,0,0,0-.3-.31H55.15c-.19,0-.29.09-.29.28,0,.42,0,.84,0,1.27,0,.2.11.29.31.29Zm-12-2.11h0c.21,0,.41,0,.62,0s.33-.09.33-.31V16.82c0-.22-.12-.31-.33-.31H43.17c-.2,0-.31.08-.3.29v1.26c0,.21.11.3.31.3Zm3.28.27h-.65a.28.28,0,0,0-.32.32c0,.41,0,.82,0,1.24a.25.25,0,0,0,.28.28h1.33a.27.27,0,0,0,.3-.31c0-.41,0-.82,0-1.24a.28.28,0,0,0-.31-.3ZM58,20.48h.65c.19,0,.31-.09.31-.29,0-.42,0-.84,0-1.27a.26.26,0,0,0-.29-.28H57.34c-.2,0-.3.1-.3.31v1.23a.28.28,0,0,0,.31.3Zm-8.73-1.84h-.62c-.22,0-.34.09-.34.33,0,.4,0,.8,0,1.2,0,.2.09.32.3.32.44,0,.88,0,1.32,0a.4.4,0,0,0,.29-.27c0-.42,0-.84,0-1.27,0-.2-.12-.29-.32-.29Zm-6.55,1.85h.62a.3.3,0,0,0,.35-.35c0-.38,0-.77,0-1.15,0-.22-.08-.35-.32-.34h-1.3a.26.26,0,0,0-.3.3v1.23c0,.21.1.31.3.31Zm-9.8-2.12h.65c.21,0,.31-.1.31-.3,0-.4,0-.81,0-1.21,0-.24-.12-.33-.34-.33H32.9c-1,0-.91-.12-.91.9S31.85,18.36,32.92,18.37Zm12,2.12h.65a.29.29,0,0,0,.32-.33q0-.6,0-1.2a.28.28,0,0,0-.32-.32h-1.3a.27.27,0,0,0-.3.3v1.23a.27.27,0,0,0,.3.31Zm-4.35,0h.62a.3.3,0,0,0,.34-.33V19a.27.27,0,0,0-.3-.3H39.88c-.2,0-.29.11-.29.31v1.23c0,.21.11.3.31.3Zm-6.55,0h.62c.22,0,.35-.09.35-.32,0-.4,0-.81,0-1.21,0-.23-.12-.31-.33-.31H33.38c-.22,0-.32.1-.31.32,0,.38,0,.76,0,1.14s.12.39.39.37Zm2.21-1.83h-.67c-.19,0-.3.08-.3.27,0,.43,0,.87,0,1.3a.4.4,0,0,0,.27.25c.44,0,.88,0,1.32,0a.27.27,0,0,0,.3-.31V18.94c0-.19-.09-.28-.28-.28Zm2.16,0h0c-.22,0-.43,0-.65,0a.26.26,0,0,0-.3.3v1.24a.27.27,0,0,0,.3.3H39a.27.27,0,0,0,.3-.3c0-.41,0-.81,0-1.21,0-.23-.11-.34-.34-.33Zm-7.63-.28h.64c.2,0,.32-.08.32-.29,0-.42,0-.84,0-1.26,0-.1-.16-.26-.25-.26a12.89,12.89,0,0,0-1.39,0,.38.38,0,0,0-.23.25c0,.42,0,.85,0,1.27,0,.21.1.3.3.29Zm18.14-3.22h-.34c-.73,0-.76,0-.7.77,0,.21.11.32.32.32h.93c.76,0,.75.09.74-.8a.26.26,0,0,0-.3-.3Zm9,0h-.27c-.76,0-.79,0-.72.78a.29.29,0,0,0,.33.31h.93c.75,0,.74,0,.73-.75,0-.27-.13-.36-.38-.35Zm-2.25,1.09h0c.1,0,.2,0,.31,0,.71,0,.72,0,.69-.75,0-.25-.12-.35-.36-.35h-.9c-.78,0-.8,0-.73.8,0,.2.11.3.31.3Zm-4.47-1.09h-.31c-.77,0-.77,0-.73.79,0,.22.11.32.33.32h.92c.77,0,.81-.05.75-.8,0-.2-.11-.3-.31-.3Zm-4.55,1.1h.27c.75,0,.76,0,.72-.77,0-.23-.1-.34-.34-.33H45.91c-.09,0-.27.08-.28.13a3.75,3.75,0,0,0,0,.82c0,.06.18.13.28.14S46.36,16.25,46.59,16.25Zm-9-1.09h-.31c-.76,0-.76,0-.73.78,0,.22.11.32.32.31h1c.73,0,.73,0,.71-.73v-.06c0-.21-.11-.3-.31-.3Zm15.74,1.09h.28c.77,0,.77,0,.73-.77,0-.22-.11-.32-.32-.32-.46,0-.93,0-1.39,0-.1,0-.24.15-.27.25a1.14,1.14,0,0,0,0,.55.48.48,0,0,0,.29.27A3.08,3.08,0,0,0,53.34,16.25Zm6.79-1.1h-.28c-.77,0-.78,0-.72.78,0,.21.11.32.33.32.44,0,.88,0,1.32,0,.12,0,.32-.16.32-.24,0-.27.16-.6-.15-.82a.36.36,0,0,0-.21,0Zm-18.08,1.1h.31c.73,0,.73,0,.71-.75,0-.24-.11-.36-.35-.35h-.9c-.79,0-.79,0-.75.79,0,.22.12.31.33.31Zm-2.24,0h.28c.75,0,.74,0,.71-.76,0-.24-.11-.34-.34-.34H39.14c-.17,0-.33.07-.32.26s-.16.61.17.82a.47.47,0,0,0,.21,0Zm4.55-1.1h-.68c-.18,0-.36,0-.35.25s-.15.61.17.83a.36.36,0,0,0,.15,0H45c.18,0,.32-.09.29-.27s.18-.61-.17-.81a.36.36,0,0,0-.18,0Zm-9.08,1.1h.31c.73,0,.71.06.71-.77v0a.26.26,0,0,0-.29-.28c-.47,0-.95,0-1.42,0-.09,0-.24.1-.24.17a3.05,3.05,0,0,0,0,.74c0,.06.16.15.26.16S35.06,16.25,35.28,16.25Zm-2.23,0h.28c.73,0,.72,0,.72-.73,0-.27-.12-.37-.38-.36h-.92c-.72,0-.73,0-.69.75v0a.28.28,0,0,0,.31.3ZM60.2,27.17h.25c.75,0,.77,0,.72-.79,0-.22-.11-.31-.33-.31s-.6,0-.89,0c-.74,0-.73-.1-.71.8a.28.28,0,0,0,.31.3ZM30.82,16.26h.68c.2,0,.32-.12.29-.31s.16-.57-.17-.75c0,0-.06,0-.09,0-.49,0-1,0-1.46,0a.3.3,0,0,0-.23.19,2.15,2.15,0,0,0,0,.67c0,.08.16.18.26.19A5.58,5.58,0,0,0,30.82,16.26Zm25,9.81H55.6c-.77,0-.77,0-.73.77,0,.24.12.34.35.34h.86c.75,0,.77,0,.72-.79,0-.2-.1-.31-.3-.31Z" transform="translate(0)"/><path d="M44.34,25h4.88c.44,0,.47,0,.47.48s0,.84,0,1.27,0,.41-.41.41H39.45c-.36,0-.41-.05-.41-.42s0-.9,0-1.36c0-.28.1-.38.38-.38h4.92Z" transform="translate(0)"/><path d="M58.83,24.74H56.92c-.35,0-.41-.07-.42-.42s0-.7,0-1.05.09-.38.36-.38h3.93c.26,0,.37.11.36.37s0,.74,0,1.12-.11.37-.38.36Z" transform="translate(0)"/><path d="M31.56,22.62c-.46,0-.93,0-1.39,0-.26,0-.38-.1-.38-.36s0-.76,0-1.14.09-.35.33-.34H33c.24,0,.34.11.34.34,0,.39,0,.77,0,1.15s-.13.37-.39.36Z" transform="translate(0)"/><path d="M61.15,20.64c0,.53,0,1.07,0,1.6,0,.27-.1.39-.37.38H60.1c-.22,0-.33-.11-.33-.34,0-.49,0-1,0-1.48,0-.2,0-.33-.26-.31s-.28-.12-.29-.3c0-.42,0-.84,0-1.26,0-.1.16-.26.26-.26.45,0,.9,0,1.36,0,.23,0,.29.14.28.35v1.64Z" transform="translate(0)"/><path d="M59.62,18.36H58.48c-.25,0-.36-.11-.36-.35,0-.39,0-.78,0-1.17,0-.22.1-.33.32-.33h2.38a.29.29,0,0,1,.32.33c0,.4,0,.79,0,1.18s-.12.35-.36.34Z" transform="translate(0)"/><path d="M31.31,20.49H30.14c-.23,0-.34-.1-.34-.34,0-.4,0-.8,0-1.2,0-.2.1-.3.31-.3h2.37c.22,0,.32.11.31.33v1.17a.31.31,0,0,1-.35.34Z" transform="translate(0)"/><path d="M51.2,27.18h-.87c-.24,0-.37-.08-.37-.34,0-.49,0-1,0-1.48,0-.23.1-.34.34-.34.59,0,1.19,0,1.79,0,.23,0,.34.09.34.33,0,.5,0,1,0,1.49,0,.23-.1.34-.34.33H51.2Z" transform="translate(0)"/><path d="M37.56,25h.9c.2,0,.31.08.3.29v1.55a.27.27,0,0,1-.3.3H36.6a.26.26,0,0,1-.29-.28c0-.53,0-1.05,0-1.58A.24.24,0,0,1,36.6,25Z" transform="translate(0)"/><path d="M31,24.74h-.87c-.23,0-.34-.1-.34-.33V23.23c0-.23.11-.34.34-.33h1.77c.24,0,.36.1.35.35v1.15a.3.3,0,0,1-.35.35Z" transform="translate(0)"/><path d="M54.62,26.11v.71c0,.24-.1.36-.35.36H53a.3.3,0,0,1-.34-.34V25.33c0-.2.09-.31.3-.31.44,0,.88,0,1.32,0a.27.27,0,0,1,.3.31c0,.26,0,.52,0,.78Z" transform="translate(0)"/><path d="M59,26.1c0,.24,0,.47,0,.71s-.1.36-.35.36c-.41,0-.82,0-1.24,0-.23,0-.34-.11-.33-.34V25.35c0-.22.09-.33.31-.33.44,0,.87,0,1.3,0,.2,0,.3.1.3.31v.77Z" transform="translate(0)"/><path d="M31.69,26.09v.74c0,.21-.09.33-.31.33h-1.3c-.21,0-.3-.11-.3-.31,0-.51,0-1,0-1.54,0-.19.1-.28.29-.28H31.4a.26.26,0,0,1,.29.29Z" transform="translate(0)"/><path d="M33.86,26.1v.74c0,.22-.1.33-.32.33-.43,0-.86,0-1.29,0a.27.27,0,0,1-.3-.31V25.35a.29.29,0,0,1,.32-.33q.63,0,1.26,0c.24,0,.34.11.34.34s0,.5,0,.74Z" transform="translate(0)"/><path d="M36,26.12v.71c0,.22-.09.34-.33.34-.42,0-.84,0-1.27,0a.27.27,0,0,1-.31-.32V25.34c0-.22.11-.32.33-.32q.63,0,1.26,0c.22,0,.32.11.32.33v.77Z" transform="translate(0)"/><path d="M41.09,22.62h-.62c-.24,0-.34-.11-.34-.34,0-.39,0-.78,0-1.17,0-.23.1-.35.34-.34h1.23c.25,0,.37.11.37.36s0,.78,0,1.17a.29.29,0,0,1-.35.33Z" transform="translate(0)"/><path d="M49.69,23.82v.62a.27.27,0,0,1-.3.31H48.07a.28.28,0,0,1-.3-.32V23.2c0-.21.1-.31.3-.31.44,0,.88,0,1.33,0,.2,0,.29.11.29.31v.62Z" transform="translate(0)"/><path d="M46.55,24.75H45.9a.27.27,0,0,1-.31-.3c0-.42,0-.85,0-1.27a.26.26,0,0,1,.28-.29H47.2a.28.28,0,0,1,.31.33c0,.39,0,.78,0,1.17,0,.24-.1.37-.36.36S46.75,24.75,46.55,24.75Z" transform="translate(0)"/><path d="M47.63,20.76h.68a.25.25,0,0,1,.28.28v1.27a.27.27,0,0,1-.3.3H47c-.22,0-.32-.11-.32-.33V21.06c0-.21.11-.3.31-.3Z" transform="translate(0)"/><path d="M55.29,24.74h-.65a.26.26,0,0,1-.31-.29c0-.43,0-.86,0-1.29,0-.1.16-.25.26-.26.45,0,.9,0,1.36,0a.25.25,0,0,1,.28.28c0,.43,0,.85,0,1.27a.27.27,0,0,1-.31.3Z" transform="translate(0)"/><path d="M45.42,22.62h-.55c-.26,0-.38-.09-.38-.36s0-.78,0-1.17c0-.22.1-.32.31-.32h1.3a.28.28,0,0,1,.32.32q0,.6,0,1.2c0,.24-.12.34-.35.33Z" transform="translate(0)"/><path d="M48.16,18.36h-.61c-.22,0-.33-.1-.33-.32,0-.41,0-.82,0-1.24a.27.27,0,0,1,.31-.3h1.3c.22,0,.31.11.31.33,0,.4,0,.8,0,1.2a.28.28,0,0,1-.33.32Z" transform="translate(0)"/><path d="M54.17,22.62c-1.08,0-.94.08-1-.94v-.59c0-.21.09-.33.31-.33h1.3c.22,0,.32.11.32.33,0,.4,0,.8,0,1.21,0,.22-.11.32-.33.32Z" transform="translate(0)"/><path d="M52,20.76h.61c.21,0,.31.1.31.3,0,.42,0,.84,0,1.27a.26.26,0,0,1-.28.29H51.35a.27.27,0,0,1-.3-.3V21.05c0-.19.09-.28.28-.28H52Z" transform="translate(0)"/><path d="M56.9,16.51h.65c.2,0,.3.1.3.31,0,.41,0,.82,0,1.23a.27.27,0,0,1-.3.31h-1.3a.28.28,0,0,1-.32-.32V16.8c0-.19.1-.28.28-.29Z" transform="translate(0)"/><path d="M43.28,20.77h.62a.3.3,0,0,1,.34.34c0,.39,0,.78,0,1.18a.3.3,0,0,1-.34.34H42.66c-.24,0-.35-.11-.35-.35,0-.4,0-.79,0-1.18a.28.28,0,0,1,.32-.32Z" transform="translate(0)"/><path d="M49.83,22.62h-.62c-.23,0-.35-.1-.35-.33,0-.41,0-.83,0-1.24a.24.24,0,0,1,.28-.28h1.33a.26.26,0,0,1,.3.3v1.24a.27.27,0,0,1-.3.31Z" transform="translate(0)"/><path d="M44.37,24.75c-.22,0-.43,0-.65,0a.28.28,0,0,1-.32-.3c0-.43,0-.86,0-1.29,0-.1.17-.25.27-.26.45,0,.91,0,1.36,0a.38.38,0,0,1,.25.27c0,.43,0,.86,0,1.3a.25.25,0,0,1-.29.27h-.65Z" transform="translate(0)"/><path d="M43.14,23.82v.62a.28.28,0,0,1-.3.31H41.51c-.2,0-.29-.12-.29-.32v-1.2c0-.23.1-.34.33-.34h1.23c.24,0,.37.09.36.35S43.14,23.63,43.14,23.82Z" transform="translate(0)"/><path d="M40,24.74h-.65a.27.27,0,0,1-.3-.3V23.2a.27.27,0,0,1,.3-.31h1.3a.29.29,0,0,1,.32.32v1.18c0,.24-.1.37-.35.36Z" transform="translate(0)"/><path d="M39.45,18.37c-.22,0-.43,0-.65,0a.27.27,0,0,1-.3-.3V16.83c0-.22.12-.31.33-.31h1.26a.28.28,0,0,1,.32.32V18c0,.24-.12.33-.34.33h-.62Z" transform="translate(0)"/><path d="M58.59,22.62c-.22,0-.44,0-.65,0s-.35-.1-.35-.34q0-.6,0-1.2a.28.28,0,0,1,.32-.32h1.27c.23,0,.33.12.32.35,0,.39,0,.78,0,1.17a.3.3,0,0,1-.34.34C59,22.61,58.78,22.62,58.59,22.62Z" transform="translate(0)"/><path d="M37.82,22.89h.61c.23,0,.35.1.35.33,0,.4,0,.8,0,1.21,0,.21-.1.32-.32.31H37.18c-.22,0-.32-.09-.31-.31V23.19a.27.27,0,0,1,.3-.3Z" transform="translate(0)"/><path d="M38.91,20.77h.62c.23,0,.34.09.33.33v1.17c0,.25-.12.36-.36.35H38.3c-.24,0-.36-.1-.36-.35s0-.78,0-1.17c0-.22.1-.33.32-.33Z" transform="translate(0)"/><path d="M50.36,18.36h-.65c-.21,0-.3-.1-.31-.3q0-.61,0-1.23a.28.28,0,0,1,.32-.32H51c.24,0,.36.09.35.35s0,.78,0,1.17q0,.34-.33.33Z" transform="translate(0)"/><path d="M36.74,20.77h.65c.2,0,.3.1.3.31v1.23a.28.28,0,0,1-.31.31H36.06a.27.27,0,0,1-.29-.3c0-.42,0-.84,0-1.26,0-.19.09-.29.28-.29Z" transform="translate(0)"/><path d="M34.53,22.62h-.59c-.22,0-.34-.09-.34-.33V21.06c0-.2.11-.29.29-.29h1.33a.27.27,0,0,1,.29.3V22.3a.29.29,0,0,1-.33.32Z" transform="translate(0)"/><path d="M53.09,24.75h-.52c-.37,0-.42-.05-.42-.41s0-.74,0-1.11.09-.35.33-.34h1.26c.24,0,.34.12.34.35V24.4c0,.24-.12.35-.36.35h-.62Z" transform="translate(0)"/><path d="M54.72,18.36h-.65a.27.27,0,0,1-.3-.3c0-.42,0-.84,0-1.27a.26.26,0,0,1,.29-.28h1.3a.29.29,0,0,1,.33.32v1.23a.27.27,0,0,1-.31.3Z" transform="translate(0)"/><path d="M46,18.36c-1,0-.9.13-.91-.9v-.64c0-.21.1-.31.3-.31h1.3a.29.29,0,0,1,.32.33V18a.28.28,0,0,1-.33.32Z" transform="translate(0)"/><path d="M56.4,20.77H57c.21,0,.31.1.31.3v1.27c0,.19-.1.28-.29.29-.44,0-.89,0-1.33,0a.4.4,0,0,1-.28-.27c0-.42,0-.85,0-1.27a.27.27,0,0,1,.32-.29Z" transform="translate(0)"/><path d="M33.44,24.74h-.62c-.22,0-.32-.11-.32-.32,0-.41,0-.83,0-1.24a.26.26,0,0,1,.29-.28h1.3c.21,0,.32.09.32.32,0,.39,0,.78,0,1.17s-.1.36-.35.35Z" transform="translate(0)"/><path d="M41.63,18.37c-.22,0-.43,0-.65,0s-.3-.11-.3-.31c0-.4,0-.8,0-1.2a.3.3,0,0,1,.34-.34h1.26a.28.28,0,0,1,.32.32c0,.4,0,.8,0,1.2,0,.24-.12.33-.35.33s-.41,0-.61,0Z" transform="translate(0)"/><path d="M50.91,24.74H50.3c-.24,0-.34-.11-.34-.34V23.23c0-.25.11-.35.36-.34h1.2c.25,0,.36.1.35.35s0,.76,0,1.14-.12.38-.38.37Z" transform="translate(0)"/><path d="M37.29,16.52h.34c.61,0,.61,0,.61.6v.93a.29.29,0,0,1-.33.32H36.65c-.22,0-.33-.09-.33-.32q0-.6,0-1.2a.29.29,0,0,1,.32-.33Z" transform="translate(0)"/><path d="M51.47,20.49h-.64c-.22,0-.33-.1-.33-.32,0-.41,0-.82,0-1.23a.27.27,0,0,1,.31-.3h1.3c.2,0,.31.08.31.29,0,.41,0,.83,0,1.24,0,.22-.11.32-.33.32Z" transform="translate(0)"/><path d="M35.64,22.89h.62c.22,0,.34.1.33.34s0,.78,0,1.17-.12.35-.36.35H35c-.23,0-.32-.11-.32-.32v-1.2c0-.23.11-.34.34-.33Z" transform="translate(0)"/><path d="M35.08,18.37h-.62c-.19,0-.31-.08-.31-.29,0-.43,0-.85,0-1.27,0-.2.1-.27.29-.28h1.3a.28.28,0,0,1,.32.32c0,.39,0,.78,0,1.17s-.12.36-.36.35Z" transform="translate(0)"/><path d="M52.53,16.51h.65c.2,0,.31.09.31.29,0,.43,0,.85,0,1.27a.26.26,0,0,1-.28.29H51.88c-.2,0-.29-.11-.29-.31,0-.41,0-.82,0-1.23,0-.21.1-.31.3-.31Z" transform="translate(0)"/><path d="M53.64,20.48H53a.27.27,0,0,1-.31-.29c0-.42,0-.85,0-1.27a.38.38,0,0,1,.25-.27c.46,0,.93,0,1.39,0a.38.38,0,0,1,.25.27c0,.42,0,.84,0,1.26a.27.27,0,0,1-.31.3Z" transform="translate(0)"/><path d="M55.8,20.48h-.62c-.2,0-.31-.09-.31-.29,0-.43,0-.85,0-1.27,0-.19.1-.28.29-.28h1.33a.27.27,0,0,1,.3.31c0,.41,0,.82,0,1.23,0,.2-.1.3-.31.3Z" transform="translate(0)"/><path d="M43.82,18.37h-.64c-.2,0-.31-.09-.31-.3V16.81c0-.21.1-.3.3-.29h1.27c.21,0,.33.09.33.31v1.24c0,.22-.11.31-.33.31s-.41,0-.62,0Z" transform="translate(0)"/><path d="M47.1,18.64h.65a.28.28,0,0,1,.31.3c0,.42,0,.83,0,1.24a.27.27,0,0,1-.3.31H46.42a.25.25,0,0,1-.28-.28c0-.42,0-.83,0-1.24a.28.28,0,0,1,.32-.32Z" transform="translate(0)"/><path d="M58,20.48h-.65a.28.28,0,0,1-.31-.3V19c0-.21.1-.31.3-.31h1.32a.26.26,0,0,1,.29.28c0,.43,0,.85,0,1.27,0,.2-.12.29-.31.29Z" transform="translate(0)"/><path d="M49.27,18.64h.65c.2,0,.32.09.32.29,0,.43,0,.85,0,1.27a.4.4,0,0,1-.29.27c-.44,0-.88,0-1.32,0-.21,0-.3-.12-.3-.32,0-.4,0-.8,0-1.2,0-.24.12-.33.34-.33Z" transform="translate(0)"/><path d="M42.72,20.49h-.65c-.2,0-.3-.1-.3-.31V19a.26.26,0,0,1,.3-.3h1.3c.24,0,.33.12.32.34,0,.38,0,.77,0,1.15a.3.3,0,0,1-.35.35Z" transform="translate(0)"/><path d="M32.92,18.37c-1.07,0-.93.15-.93-.93s-.14-.89.91-.9h.65c.22,0,.34.09.34.33,0,.4,0,.81,0,1.21,0,.2-.1.3-.31.3Z" transform="translate(0)"/><path d="M44.9,20.49h-.65a.27.27,0,0,1-.3-.31V19a.27.27,0,0,1,.3-.3h1.3a.28.28,0,0,1,.32.32q0,.6,0,1.2a.29.29,0,0,1-.32.33Z" transform="translate(0)"/><path d="M40.55,20.49H39.9c-.2,0-.31-.09-.31-.3V19c0-.2.09-.31.29-.31h1.33a.27.27,0,0,1,.3.3v1.21a.3.3,0,0,1-.34.33Z" transform="translate(0)"/><path d="M34,20.49h-.55c-.27,0-.4-.09-.39-.37s0-.76,0-1.14c0-.22.09-.32.31-.32h1.26c.21,0,.33.08.33.31,0,.4,0,.81,0,1.21,0,.23-.13.33-.35.32Z" transform="translate(0)"/><path d="M36.21,18.66h.65c.19,0,.29.09.28.28v1.24a.27.27,0,0,1-.3.31c-.44,0-.88,0-1.32,0a.4.4,0,0,1-.27-.25c0-.43,0-.87,0-1.3,0-.19.11-.27.3-.27Z" transform="translate(0)"/><path d="M38.37,18.65H39c.23,0,.34.1.34.33,0,.4,0,.8,0,1.21a.27.27,0,0,1-.3.3h-1.3a.27.27,0,0,1-.3-.3V19a.26.26,0,0,1,.3-.3c.22,0,.43,0,.65,0Z" transform="translate(0)"/><path d="M30.74,18.37h-.62c-.2,0-.31-.08-.3-.29,0-.42,0-.85,0-1.27a.38.38,0,0,1,.23-.25,12.89,12.89,0,0,1,1.39,0c.09,0,.24.16.25.26,0,.42,0,.84,0,1.26,0,.21-.12.29-.32.29Z" transform="translate(0)"/><path d="M48.88,15.15h.65a.26.26,0,0,1,.3.3c0,.89,0,.79-.74.8h-.93c-.21,0-.31-.11-.32-.32-.06-.74,0-.78.7-.77Z" transform="translate(0)"/><path d="M57.86,15.15h.62c.25,0,.37.08.38.35,0,.75,0,.75-.73.75H57.2a.29.29,0,0,1-.33-.31c-.07-.75,0-.78.72-.78Z" transform="translate(0)"/><path d="M55.61,16.24h-.68c-.2,0-.29-.1-.31-.3-.07-.78,0-.8.73-.8h.9c.24,0,.35.1.36.35,0,.73,0,.75-.69.75-.11,0-.21,0-.31,0Z" transform="translate(0)"/><path d="M51.14,15.15h.65c.2,0,.29.1.31.3.06.75,0,.8-.75.8h-.92c-.22,0-.32-.1-.33-.32,0-.78,0-.78.73-.79h.31Z" transform="translate(0)"/><path d="M46.59,16.25c-.23,0-.46,0-.68,0s-.27-.08-.28-.14a3.75,3.75,0,0,1,0-.82s.19-.12.28-.13h1.33c.24,0,.33.1.34.33,0,.75,0,.77-.72.77Z" transform="translate(0)"/><path d="M37.6,15.16h.64c.2,0,.31.09.31.3v.06c0,.73,0,.74-.71.73h-1c-.21,0-.31-.09-.32-.31,0-.77,0-.77.73-.78Z" transform="translate(0)"/><path d="M53.34,16.25a3.08,3.08,0,0,1-.68,0,.48.48,0,0,1-.29-.27,1.14,1.14,0,0,1,0-.55c0-.1.17-.25.27-.25.46,0,.93,0,1.39,0,.21,0,.31.1.32.32,0,.77,0,.77-.73.77h-.28Z" transform="translate(0)"/><path d="M60.13,15.15h.61a.36.36,0,0,1,.21,0c.31.22.14.55.15.82,0,.08-.2.23-.32.24-.44,0-.88,0-1.32,0-.22,0-.31-.11-.33-.32-.06-.76-.05-.78.72-.78Z" transform="translate(0)"/><path d="M42.05,16.25H41.4c-.21,0-.31-.09-.33-.31,0-.78,0-.79.75-.79h.9c.24,0,.34.11.35.35,0,.74,0,.75-.71.75Z" transform="translate(0)"/><path d="M39.81,16.25H39.2a.47.47,0,0,1-.21,0c-.33-.21-.15-.54-.17-.82s.15-.25.32-.26h1.32c.23,0,.33.1.34.34,0,.76,0,.76-.71.76Z" transform="translate(0)"/><path d="M44.36,15.15H45a.36.36,0,0,1,.18,0c.35.2.14.53.17.81s-.11.27-.29.27H43.65a.36.36,0,0,1-.15,0c-.32-.22-.15-.55-.17-.83s.17-.25.35-.25Z" transform="translate(0)"/><path d="M35.28,16.25c-.22,0-.45,0-.67,0s-.25-.1-.26-.16a3.05,3.05,0,0,1,0-.74c0-.07.15-.17.24-.17.47,0,.95,0,1.42,0a.26.26,0,0,1,.29.28v0c0,.83,0,.79-.71.77Z" transform="translate(0)"/><path d="M33.05,16.26h-.68a.28.28,0,0,1-.31-.3v0c0-.73,0-.74.69-.75h.92c.26,0,.37.09.38.36,0,.73,0,.73-.72.73Z" transform="translate(0)"/><path d="M60.2,27.17h-.65a.28.28,0,0,1-.31-.3c0-.9,0-.79.71-.8.29,0,.59,0,.89,0s.31.09.33.31c0,.76,0,.79-.72.79Z" transform="translate(0)"/><path d="M30.82,16.26a5.58,5.58,0,0,1-.71,0c-.1,0-.25-.11-.26-.19a2.15,2.15,0,0,1,0-.67.3.3,0,0,1,.23-.19c.49,0,1,0,1.46,0,0,0,.06,0,.09,0,.33.18.14.49.17.75s-.09.31-.29.31Z" transform="translate(0)"/><path d="M55.85,26.07h.65c.2,0,.29.11.3.31.05.77,0,.79-.72.79h-.86c-.23,0-.33-.1-.35-.34,0-.76,0-.76.73-.77Z" transform="translate(0)"/><polygon class="cls-2" points="30.61 13.07 30.61 13.1 29.81 13.1 29.81 13.07 29.85 13.04 30.57 13.04 30.61 13.07"/><rect class="cls-2" x="30.8" y="12.97" width="0.8" height="0.12"/><path class="cls-2" d="M29.31,12.91" transform="translate(0)"/><polygon class="cls-3" points="30.61 13.07 30.61 13.1 29.81 13.1 29.81 13.07 29.85 13.04 30.57 13.04 30.61 13.07"/><rect class="cls-3" x="30.8" y="12.97" width="0.8" height="0.12"/><rect class="cls-4" x="25.69" y="15.25" width="3.11" height="11.89"/><rect class="cls-2" x="31.79" y="12.97" width="0.8" height="0.12"/><rect class="cls-2" x="32.78" y="12.97" width="0.8" height="0.12"/><rect class="cls-2" x="33.77" y="12.97" width="0.8" height="0.12"/><rect class="cls-2" x="34.76" y="12.97" width="0.8" height="0.12"/><rect class="cls-2" x="35.75" y="12.97" width="0.8" height="0.12"/><rect class="cls-2" x="36.74" y="12.97" width="0.8" height="0.12"/><rect class="cls-2" x="37.73" y="12.97" width="0.8" height="0.12"/><rect class="cls-2" x="38.72" y="12.97" width="0.8" height="0.12"/><rect class="cls-2" x="39.71" y="12.97" width="0.8" height="0.12"/><rect class="cls-2" x="40.7" y="12.97" width="0.8" height="0.12"/><rect class="cls-2" x="41.69" y="12.97" width="0.8" height="0.12"/><rect class="cls-2" x="42.69" y="12.97" width="0.8" height="0.12"/><rect class="cls-2" x="43.68" y="12.97" width="0.8" height="0.12"/><rect class="cls-2" x="44.67" y="12.97" width="0.8" height="0.12"/><rect class="cls-2" x="45.66" y="12.97" width="0.8" height="0.12"/><rect class="cls-2" x="46.65" y="12.97" width="0.8" height="0.12"/><rect class="cls-2" x="47.64" y="12.97" width="0.8" height="0.12"/><rect class="cls-2" x="48.63" y="12.97" width="0.8" height="0.12"/><rect class="cls-2" x="49.62" y="12.97" width="0.8" height="0.12"/><rect class="cls-2" x="50.61" y="12.97" width="0.8" height="0.12"/><rect class="cls-2" x="51.6" y="12.97" width="0.8" height="0.12"/><rect class="cls-2" x="52.59" y="12.97" width="0.8" height="0.12"/><rect class="cls-2" x="53.58" y="12.97" width="0.8" height="0.12"/><rect class="cls-2" x="54.57" y="12.97" width="0.8" height="0.12"/><rect class="cls-2" x="55.56" y="12.97" width="0.8" height="0.12"/><rect class="cls-2" x="56.55" y="12.97" width="0.8" height="0.12"/><rect class="cls-2" x="57.55" y="12.97" width="0.8" height="0.12"/><rect class="cls-2" x="58.54" y="12.97" width="0.8" height="0.12"/><rect class="cls-2" x="59.53" y="12.97" width="0.8" height="0.12"/><rect class="cls-2" x="60.52" y="12.97" width="0.8" height="0.12"/><rect class="cls-3" x="29.31" y="12.61" width="32.23" height="0.31"/><path class="cls-5" d="M29.31,12.91v.31H61.54v-.31Zm1.3.19h-.8V13h.8Zm1,0h-.8V13h.8Zm1,0h-.8V13h.8Zm1,0h-.8V13h.8Zm1,0h-.8V13h.8Zm1,0h-.8V13h.8Zm1,0h-.8V13h.8Zm1,0h-.8V13h.8Zm1,0h-.8V13h.8Zm1,0h-.81V13h.81Zm1,0h-.81V13h.81Zm1,0H40.7V13h.81Zm1,0h-.81V13h.81Zm1,0h-.8V13h.8Zm1,0h-.8V13h.8Zm1,0h-.8V13h.8Zm1,0h-.8V13h.8Zm1,0h-.8V13h.8Zm1,0h-.8V13h.8Zm1,0h-.8V13h.8Zm1,0h-.8V13h.8Zm1,0h-.8V13h.8Zm1,0h-.8V13h.8Zm1,0h-.81V13h.81Zm1,0h-.81V13h.81Zm1,0h-.81V13h.81Zm1,0h-.81V13h.81Zm1,0h-.81V13h.81Zm1,0h-.8V13h.8Zm1,0h-.8V13h.8Zm1,0h-.8V13h.8Zm1,0h-.8V13h.8Z" transform="translate(0)"/><polygon class="cls-6" points="30.61 12.97 30.61 13.07 30.57 13.04 29.85 13.04 29.81 13.07 29.81 12.97 30.61 12.97"/><polygon class="cls-6" points="31.6 12.97 31.6 13.07 31.56 13.04 30.84 13.04 30.8 13.07 30.8 12.97 31.6 12.97"/><polygon class="cls-6" points="32.59 12.97 32.59 13.01 32.55 13 31.84 13 31.79 13.03 31.79 12.97 32.59 12.97"/><polygon class="cls-6" points="33.58 12.97 33.58 13.01 33.54 13 32.83 13 32.78 13.03 32.78 12.97 33.58 12.97"/><polygon class="cls-6" points="34.57 12.97 34.57 13.01 34.53 13 33.82 13 33.77 13.03 33.77 12.97 34.57 12.97"/><polygon class="cls-6" points="35.56 12.97 35.56 13.01 35.52 13 34.81 13 34.76 13.03 34.76 12.97 35.56 12.97"/><polygon class="cls-6" points="36.55 12.97 36.55 13.01 36.51 13 35.8 13 35.75 13.03 35.75 12.97 36.55 12.97"/><polygon class="cls-6" points="37.54 12.97 37.54 13.01 37.5 13 36.79 13 36.74 13.03 36.74 12.97 37.54 12.97"/><polygon class="cls-6" points="38.53 12.97 38.53 13.01 38.49 13 37.78 13 37.73 13.03 37.73 12.97 38.53 12.97"/><polygon class="cls-6" points="39.52 12.97 39.52 13.01 39.49 13 38.77 13 38.72 13.03 38.72 12.97 39.52 12.97"/><polygon class="cls-6" points="40.52 12.97 40.52 13.01 40.48 13 39.76 13 39.71 13.03 39.71 12.97 40.52 12.97"/><polygon class="cls-6" points="41.51 12.97 41.51 13.01 41.47 13 40.76 13 40.7 13.03 40.7 12.97 41.51 12.97"/><polygon class="cls-6" points="42.5 12.97 42.5 13.01 42.46 13 41.74 13 41.69 13.03 41.69 12.97 42.5 12.97"/><polygon class="cls-6" points="43.49 12.97 43.49 13.01 43.45 13 42.74 13 42.68 13.03 42.68 12.97 43.49 12.97"/><polygon class="cls-6" points="44.48 12.97 44.48 13.01 44.44 13 43.73 13 43.67 13.03 43.67 12.97 44.48 12.97"/><polygon class="cls-6" points="45.47 12.97 45.47 13.01 45.43 13 44.72 13 44.66 13.03 44.66 12.97 45.47 12.97"/><polygon class="cls-6" points="46.46 12.97 46.46 13.01 46.42 13 45.71 13 45.66 13.03 45.66 12.97 46.46 12.97"/><polygon class="cls-6" points="47.45 12.97 47.45 13.01 47.41 13 46.7 13 46.65 13.03 46.65 12.97 47.45 12.97"/><polygon class="cls-6" points="48.44 12.97 48.44 13.01 48.4 13 47.69 13 47.64 13.03 47.64 12.97 48.44 12.97"/><polygon class="cls-6" points="49.43 12.97 49.43 13.01 49.39 13 48.68 13 48.63 13.03 48.63 12.97 49.43 12.97"/><polygon class="cls-6" points="50.42 12.97 50.42 13.01 50.38 13 49.67 13 49.62 13.03 49.62 12.97 50.42 12.97"/><polygon class="cls-6" points="51.41 12.97 51.41 13.01 51.37 13 50.66 13 50.61 13.03 50.61 12.97 51.41 12.97"/><polygon class="cls-6" points="52.4 12.97 52.4 13.01 52.36 13 51.65 13 51.6 13.03 51.6 12.97 52.4 12.97"/><polygon class="cls-6" points="53.39 12.97 53.39 13.01 53.35 13 52.64 13 52.59 13.03 52.59 12.97 53.39 12.97"/><polygon class="cls-6" points="54.38 12.97 54.38 13.01 54.34 13 53.63 13 53.58 13.03 53.58 12.97 54.38 12.97"/><polygon class="cls-6" points="55.37 12.97 55.37 13.01 55.34 13 54.62 13 54.57 13.03 54.57 12.97 55.37 12.97"/><polygon class="cls-6" points="56.37 12.97 56.37 13.01 56.33 13 55.61 13 55.56 13.03 55.56 12.97 56.37 12.97"/><polygon class="cls-6" points="57.36 12.97 57.36 13.01 57.32 13 56.6 13 56.55 13.03 56.55 12.97 57.36 12.97"/><polygon class="cls-6" points="58.35 12.97 58.35 13.01 58.31 13 57.59 13 57.54 13.03 57.54 12.97 58.35 12.97"/><polygon class="cls-6" points="59.34 12.97 59.34 13.01 59.3 13 58.59 13 58.53 13.03 58.53 12.97 59.34 12.97"/><polygon class="cls-6" points="60.33 12.97 60.33 13.01 60.29 13 59.58 13 59.52 13.03 59.52 12.97 60.33 12.97"/><polygon class="cls-6" points="61.32 12.97 61.32 13.01 61.28 13 60.57 13 60.51 13.03 60.51 12.97 61.32 12.97"/><path class="cls-2" d="M62,15.25V27.14h3.11V15.25ZM25.69,27.14h3.12V15.25H25.69Z" transform="translate(0)"/><path class="cls-7" d="M66,13a1.44,1.44,0,0,0-1.16-1.26l-.27-.06h-3v1.56H29.31V11.75H26.52a2.2,2.2,0,0,0-.29.05A1.52,1.52,0,0,0,25,13.22l-.14,25.36A1.46,1.46,0,0,0,26.38,40H42.61s0-.19.35-.22h5s.22.07.23.22H64.6a1.44,1.44,0,0,0,1.49-1.53ZM28.81,27.14H25.69V15.25h3.12ZM51.47,37.78a.51.51,0,0,1-.51.51H39.85a.51.51,0,0,1-.51-.51V29.93a.51.51,0,0,1,.51-.51H51a.51.51,0,0,1,.51.51Zm9.87-10.2H29.91c-.49,0-.41-.29-.41-.29V15a.3.3,0,0,1,.3-.3H61.1c.61,0,.51.31.51.31V27.21C61.63,27.61,61.34,27.58,61.34,27.58Zm3.77-.44H62V15.25h3.11Z" transform="translate(0)"/><path class="cls-8" d="M48.23,40H42.61s0-.19.35-.22h5S48.22,39.89,48.23,40Z" transform="translate(0)"/><rect class="cls-3" x="31.79" y="12.97" width="0.8" height="0.12"/><rect class="cls-3" x="32.78" y="12.97" width="0.8" height="0.12"/><rect class="cls-3" x="33.77" y="12.97" width="0.8" height="0.12"/><rect class="cls-3" x="34.76" y="12.97" width="0.8" height="0.12"/><rect class="cls-3" x="35.75" y="12.97" width="0.8" height="0.12"/><rect class="cls-3" x="36.74" y="12.97" width="0.8" height="0.12"/><rect class="cls-3" x="37.73" y="12.97" width="0.8" height="0.12"/><rect class="cls-3" x="38.72" y="12.97" width="0.8" height="0.12"/><rect class="cls-3" x="39.71" y="12.97" width="0.8" height="0.12"/><rect class="cls-3" x="40.7" y="12.97" width="0.8" height="0.12"/><rect class="cls-3" x="41.69" y="12.97" width="0.8" height="0.12"/><rect class="cls-3" x="42.69" y="12.97" width="0.8" height="0.12"/><rect class="cls-3" x="43.68" y="12.97" width="0.8" height="0.12"/><rect class="cls-3" x="44.67" y="12.97" width="0.8" height="0.12"/><rect class="cls-3" x="45.66" y="12.97" width="0.8" height="0.12"/><rect class="cls-3" x="46.65" y="12.97" width="0.8" height="0.12"/><rect class="cls-3" x="47.64" y="12.97" width="0.8" height="0.12"/><rect class="cls-3" x="48.63" y="12.97" width="0.8" height="0.12"/><rect class="cls-3" x="49.62" y="12.97" width="0.8" height="0.12"/><rect class="cls-3" x="50.61" y="12.97" width="0.8" height="0.12"/><rect class="cls-3" x="51.6" y="12.97" width="0.8" height="0.12"/><rect class="cls-3" x="52.59" y="12.97" width="0.8" height="0.12"/><rect class="cls-3" x="53.58" y="12.97" width="0.8" height="0.12"/><rect class="cls-3" x="54.57" y="12.97" width="0.8" height="0.12"/><rect class="cls-3" x="55.56" y="12.97" width="0.8" height="0.12"/><rect class="cls-3" x="56.55" y="12.97" width="0.8" height="0.12"/><rect class="cls-3" x="57.55" y="12.97" width="0.8" height="0.12"/><rect class="cls-3" x="58.54" y="12.97" width="0.8" height="0.12"/><rect class="cls-3" x="59.53" y="12.97" width="0.8" height="0.12"/><rect class="cls-3" x="60.52" y="12.97" width="0.8" height="0.12"/><rect class="cls-4" x="62" y="15.25" width="3.11" height="11.89"/><path class="cls-2" d="M48.23,40.05h0" transform="translate(0)"/><path class="cls-9" d="M68.13,0S23.25,0,22.3.1s-.85.74-.85.74L25,11.28c.3.56,1.26.52,1.26.52a2.2,2.2,0,0,1,.29-.05h2.79v-.33H61.54v.24h3l.27.06c1,.1,1.06-.4,1.06-.4L69.19.79C69.41,0,68.13,0,68.13,0ZM64.81,10.8H26.39L23.43,1H67.58Z" transform="translate(0)"/><polygon class="cls-10" points="67.58 0.98 64.81 10.8 26.39 10.8 23.43 0.98 67.58 0.98"/><path class="cls-11" d="M51,29.42H39.85a.51.51,0,0,0-.51.51v7.85a.51.51,0,0,0,.51.51H51a.51.51,0,0,0,.51-.51V29.93A.51.51,0,0,0,51,29.42Zm.41,8.36a.41.41,0,0,1-.41.4H39.85a.4.4,0,0,1-.41-.4V29.93a.41.41,0,0,1,.41-.41H51a.42.42,0,0,1,.41.41Z" transform="translate(0)"/><rect class="cls-2" x="39.44" y="29.52" width="11.92" height="8.66" rx="0.4"/><rect class="cls-12" x="39.44" y="29.52" width="11.92" height="8.66" rx="0.4"/><path class="cls-2" d="M61.61,27.21c0,.4-.27.37-.27.37H29.91c-.49,0-.41-.29-.41-.29V15a.3.3,0,0,1,.3-.3H61.1c.61,0,.51.31.51.31Z" transform="translate(0)"/><rect class="cls-13" x="29.31" y="11.42" width="32.23" height="1.11"/><polygon class="cls-3" points="30.61 13.07 30.61 13.07 29.81 13.07 29.85 13.04 30.57 13.04 30.61 13.07"/><polygon class="cls-6" points="32.59 12.97 32.59 13.07 32.55 13.04 31.83 13.04 31.79 13.07 31.79 12.97 32.59 12.97"/><polygon class="cls-6" points="33.58 12.97 33.58 13.07 33.54 13.04 32.82 13.04 32.78 13.07 32.78 12.97 33.58 12.97"/><polygon class="cls-6" points="34.57 12.97 34.57 13.07 34.53 13.04 33.81 13.04 33.77 13.07 33.77 12.97 34.57 12.97"/><polygon class="cls-6" points="35.56 12.97 35.56 13.07 35.52 13.04 34.8 13.04 34.76 13.07 34.76 12.97 35.56 12.97"/><polygon class="cls-6" points="36.55 12.97 36.55 13.07 36.51 13.04 35.79 13.04 35.75 13.07 35.75 12.97 36.55 12.97"/><polygon class="cls-6" points="37.54 12.97 37.54 13.07 37.5 13.04 36.78 13.04 36.74 13.07 36.74 12.97 37.54 12.97"/><polygon class="cls-6" points="38.53 12.97 38.53 13.07 38.49 13.04 37.77 13.04 37.73 13.07 37.73 12.97 38.53 12.97"/><polygon class="cls-6" points="39.52 12.97 39.52 13.07 39.48 13.04 38.76 13.04 38.72 13.07 38.72 12.97 39.52 12.97"/><polygon class="cls-6" points="40.51 12.97 40.51 13.07 40.47 13.04 39.75 13.04 39.71 13.07 39.71 12.97 40.51 12.97"/><polygon class="cls-6" points="41.5 12.97 41.5 13.07 41.47 13.04 40.74 13.04 40.7 13.07 40.7 12.97 41.5 12.97"/><polygon class="cls-6" points="42.49 12.97 42.49 13.07 42.45 13.04 41.73 13.04 41.69 13.07 41.69 12.97 42.49 12.97"/><polygon class="cls-6" points="43.48 12.97 43.48 13.07 43.45 13.04 42.72 13.04 42.68 13.07 42.68 12.97 43.48 12.97"/><polygon class="cls-6" points="44.47 12.97 44.47 13.07 44.44 13.04 43.71 13.04 43.67 13.07 43.67 12.97 44.47 12.97"/><polygon class="cls-6" points="45.46 12.97 45.46 13.07 45.43 13.04 44.7 13.04 44.66 13.07 44.66 12.97 45.46 12.97"/><polygon class="cls-6" points="46.45 12.97 46.45 13.07 46.42 13.04 45.69 13.04 45.65 13.07 45.65 12.97 46.45 12.97"/><polygon class="cls-6" points="47.44 12.97 47.44 13.07 47.41 13.04 46.68 13.04 46.64 13.07 46.64 12.97 47.44 12.97"/><polygon class="cls-6" points="48.44 12.97 48.44 13.07 48.4 13.04 47.67 13.04 47.63 13.07 47.63 12.97 48.44 12.97"/><polygon class="cls-6" points="49.42 12.97 49.42 13.07 49.39 13.04 48.66 13.04 48.62 13.07 48.62 12.97 49.42 12.97"/><polygon class="cls-6" points="50.41 12.97 50.41 13.07 50.38 13.04 49.65 13.04 49.61 13.07 49.61 12.97 50.41 12.97"/><polygon class="cls-6" points="51.41 12.97 51.41 13.07 51.37 13.04 50.64 13.04 50.6 13.07 50.6 12.97 51.41 12.97"/><polygon class="cls-6" points="52.4 12.97 52.4 13.07 52.36 13.04 51.63 13.04 51.59 13.07 51.59 12.97 52.4 12.97"/><polygon class="cls-6" points="53.39 12.97 53.39 13.07 53.35 13.04 52.62 13.04 52.58 13.07 52.58 12.97 53.39 12.97"/><polygon class="cls-6" points="54.38 12.97 54.38 13.07 54.34 13.04 53.61 13.04 53.57 13.07 53.57 12.97 54.38 12.97"/><polygon class="cls-6" points="55.37 12.97 55.37 13.07 55.33 13.04 54.6 13.04 54.56 13.07 54.56 12.97 55.37 12.97"/><polygon class="cls-6" points="56.36 12.97 56.36 13.07 56.32 13.04 55.59 13.04 55.55 13.07 55.55 12.97 56.36 12.97"/><polygon class="cls-6" points="57.35 12.97 57.35 13.07 57.31 13.04 56.58 13.04 56.54 13.07 56.54 12.97 57.35 12.97"/><polygon class="cls-6" points="58.34 12.97 58.34 13.07 58.3 13.04 57.57 13.04 57.53 13.07 57.53 12.97 58.34 12.97"/><polygon class="cls-6" points="59.33 12.97 59.33 13.07 59.29 13.04 58.56 13.04 58.52 13.07 58.52 12.97 59.33 12.97"/><polygon class="cls-6" points="60.32 12.97 60.32 13.07 60.28 13.04 59.55 13.04 59.52 13.07 59.52 12.97 60.32 12.97"/><polygon class="cls-6" points="61.31 12.97 61.31 13.07 61.27 13.04 60.55 13.04 60.51 13.07 60.51 12.97 61.31 12.97"/><path class="cls-2" d="M1.74,23.4v.44h.72V23.4Zm.72,2.54v.16H1.74v.44h.72v.12H3v-.72Zm0,1.38v.13H1.74v.44h.72V28H3v-.72Zm0,1.38v.1H1.74v.44h.72v.19H3V28.7Zm0,1.39v.06H1.74v.44h.72v.22H3v-.72Zm0,1.38v0H1.74v.44h.72v.25H3v-.72Zm.38,2.76s0,0,0,0H1.74v.44h.72V35H3v-.73Zm-1.1-1.38v.44h.72v.28H3v-.72Zm1.11,2.76v0a0,0,0,0,0-.05,0H1.74V36h.72v.35H3v-.73Zm0,1.39v-.06a0,0,0,0,0-.05,0H1.74v.44h.72v.38H3V37ZM2.46,24.56v.19H1.74v.44h.72v.09H3v-.72Z" transform="translate(0)"/><path class="cls-14" d="M15.28,21.8,15.2,39.3l-13.46,0V37.34h.72v.38H3V37H2.84v-.06a0,0,0,0,0-.05,0H1.74V36h.72v.35H3v-.73H2.85v0a0,0,0,0,0-.05,0H1.74v-.91h.72V35H3v-.73H2.84s0,0,0,0H1.74v-.91h.72v.28H3v-.72H1.74v-.91h.72v.25H3v-.72H2.46v0H1.74v-.91h.72v.22H3v-.72H2.46v.06H1.74v-.91h.72v.19H3V28.7H2.46v.1H1.74v-.91h.72V28H3v-.72H2.46v.13H1.74v-.91h.72v.12H3v-.72H2.46v.16H1.74v-.91h.72v.09H3v-.72H2.46v.19H1.74v-.91h.72v.06H3v-.73H2.46v.23H1.74V21.8Z" transform="translate(0)"/><rect class="cls-15" x="2.46" y="23.17" width="0.22" height="0.72"/><rect class="cls-16" x="2.68" y="23.17" width="0.34" height="0.72"/><rect class="cls-15" x="2.46" y="24.56" width="0.22" height="0.72"/><rect class="cls-16" x="2.68" y="24.56" width="0.34" height="0.72"/><rect class="cls-15" x="2.46" y="25.94" width="0.22" height="0.72"/><rect class="cls-16" x="2.68" y="25.94" width="0.34" height="0.72"/><rect class="cls-15" x="2.46" y="27.32" width="0.22" height="0.72"/><rect class="cls-16" x="2.68" y="27.32" width="0.34" height="0.72"/><rect class="cls-15" x="2.46" y="28.7" width="0.22" height="0.72"/><rect class="cls-16" x="2.68" y="28.7" width="0.34" height="0.72"/><rect class="cls-15" x="2.46" y="30.09" width="0.22" height="0.72"/><rect class="cls-16" x="2.68" y="30.09" width="0.34" height="0.72"/><rect class="cls-15" x="2.46" y="31.47" width="0.22" height="0.72"/><rect class="cls-16" x="2.68" y="31.47" width="0.34" height="0.72"/><rect class="cls-15" x="2.46" y="32.85" width="0.22" height="0.72"/><rect class="cls-16" x="2.68" y="32.85" width="0.34" height="0.72"/><rect class="cls-15" x="2.46" y="34.23" width="0.22" height="0.72"/><rect class="cls-16" x="2.68" y="34.23" width="0.34" height="0.72"/><rect class="cls-15" x="2.46" y="35.61" width="0.22" height="0.72"/><rect class="cls-16" x="2.68" y="35.61" width="0.34" height="0.72"/><rect class="cls-15" x="2.46" y="37" width="0.22" height="0.72"/><rect class="cls-16" x="2.68" y="37" width="0.34" height="0.72"/><rect class="cls-17" y="23.4" width="2.85" height="0.13" rx="0.05"/><rect class="cls-17" y="23.71" width="2.85" height="0.13" rx="0.05"/><rect class="cls-17" y="24.75" width="2.85" height="0.13" rx="0.05"/><rect class="cls-17" y="25.06" width="2.85" height="0.13" rx="0.05"/><rect class="cls-17" y="26.1" width="2.85" height="0.13" rx="0.05"/><rect class="cls-17" y="26.41" width="2.85" height="0.13" rx="0.05"/><rect class="cls-17" y="27.45" width="2.85" height="0.13" rx="0.05"/><rect class="cls-17" y="27.76" width="2.85" height="0.13" rx="0.05"/><rect class="cls-17" y="28.8" width="2.85" height="0.13" rx="0.05"/><rect class="cls-17" y="29.11" width="2.85" height="0.13" rx="0.05"/><rect class="cls-17" y="30.15" width="2.85" height="0.13" rx="0.05"/><rect class="cls-17" y="30.46" width="2.85" height="0.13" rx="0.05"/><rect class="cls-17" y="31.59" width="2.85" height="0.13" rx="0.05"/><rect class="cls-17" y="31.9" width="2.85" height="0.13" rx="0.05"/><rect class="cls-17" y="32.98" width="2.85" height="0.13" rx="0.05"/><rect class="cls-17" y="33.28" width="2.85" height="0.13" rx="0.05"/><path class="cls-17" d="M2.85,34.4v0a0,0,0,0,1-.05.05H.05a0,0,0,0,1,0-.05v0a0,0,0,0,1,.05,0H2.8s0,0,0,0Z" transform="translate(0)"/><rect class="cls-17" y="34.67" width="2.85" height="0.13" rx="0.05"/><rect class="cls-17" y="35.77" width="2.85" height="0.13" rx="0.05"/><rect class="cls-17" y="36.08" width="2.85" height="0.13" rx="0.05"/><path class="cls-17" d="M2.85,37.14v0s0,0,0,0H.05a0,0,0,0,1,0,0v0a0,0,0,0,1,.05,0H2.8A0,0,0,0,1,2.85,37.14Z" transform="translate(0)"/><rect class="cls-17" y="37.4" width="2.85" height="0.13" rx="0.05"/><polygon class="cls-18" points="20.89 26.73 20.89 34.07 20.85 34.13 20.07 34.13 20.04 34.06 20.04 26.73 20.89 26.73"/><polygon class="cls-19" points="20.86 34.13 20.85 34.25 20.8 37.38 20.54 37.59 20.55 38.21 20.37 38.21 20.37 37.59 20.07 37.38 20.07 34.13 20.86 34.13"/><line class="cls-2" x1="20.49" y1="34.07" x2="20.44" y2="34.13"/><path class="cls-20" d="M20,25.65h1a.09.09,0,0,1,.08.08v3.6a.09.09,0,0,1-.08.08h0a.08.08,0,0,1-.08-.08V26.82a.09.09,0,0,0-.08-.08H20a.08.08,0,0,1-.08-.08v-.93A.09.09,0,0,1,20,25.65Z" transform="translate(0)"/><rect class="cls-21" x="20.08" y="24.6" width="0.77" height="1.05"/><polygon class="cls-22" points="20.08 24.6 20.03 24.6 20.03 24.29 20.9 24.29 20.9 24.6 20.08 24.6"/><rect class="cls-23" x="20.18" y="23.3" width="0.56" height="0.99"/></svg>