<svg id="Layer_1" data-name="Layer 1" xmlns="http://www.w3.org/2000/svg" viewBox="0 0 13.31 11.55"><defs><style>.cls-1{fill:#2e3192;}</style></defs><polygon class="cls-1" points="7.09 10.72 6.14 10.72 6.61 11.55 7.09 10.72"/><polygon class="cls-1" points="0 0 4.47 7.81 5.46 6.09 4.46 4.35 6.39 4.35 5.81 3.35 7.41 3.35 6.83 4.35 8.77 4.35 7.76 6.09 8.77 7.84 13.31 0.05 0 0"/><polygon class="cls-1" points="5.68 6.47 3.44 10.35 9.78 10.35 7.54 6.47 6.61 8.08 5.68 6.47"/><polygon class="cls-1" points="6.61 4.73 5.11 4.73 6.61 7.33 8.11 4.73 6.62 4.73 6.61 4.74 6.61 4.73"/><polygon class="cls-1" points="7.02 3.58 6.21 3.58 6.61 4.29 7.02 3.58"/></svg>